<?xml version="1.0" encoding="utf-8"?>
<!-- Generator: Adobe Illustrator 17.0.0, SVG Export Plug-In . SVG Version: 6.00 Build 0)  -->
<!DOCTYPE svg PUBLIC "-//W3C//DTD SVG 1.1//EN" "http://www.w3.org/Graphics/SVG/1.1/DTD/svg11.dtd">
<svg version="1.1" id="Layer_1" xmlns="http://www.w3.org/2000/svg" xmlns:xlink="http://www.w3.org/1999/xlink" x="0px" y="0px"
	 width="16px" height="16px" viewBox="0 0 16 16" enable-background="new 0 0 16 16" xml:space="preserve">
<g>
	<path fill="#CAD2D2" d="M4.007,2.232c1.267,0,2.414,0.93,3.067,2.486C7.23,5.089,7.594,5.331,7.996,5.331c0,0,0.001,0,0.001,0
		c0.403,0,0.766-0.243,0.922-0.615c0.632-1.515,1.785-2.42,3.083-2.42c1.468,0,2.958,1.22,2.976,3.945
		c0.014,2-1.502,2.962-3.106,3.98c-0.386,0.245-0.786,0.499-1.151,0.762c-0.927,0.67-1.962,1.627-2.705,2.534
		c-0.672-0.841-1.639-1.766-2.769-2.521c-0.293-0.196-0.609-0.39-0.934-0.59C2.614,9.36,1.007,8.372,1.021,6.275
		C1.04,3.497,2.582,2.231,4.007,2.232 M4.007,1.232c-2.034,0-3.964,1.772-3.986,5.036C0,9.403,2.817,10.574,4.693,11.828
		c1.819,1.215,3.113,2.878,3.316,3.586c0.174-0.693,1.615-2.403,3.299-3.62c1.841-1.33,4.693-2.425,4.671-5.56
		c-0.022-3.243-1.951-4.938-3.976-4.938c-1.548,0-3.152,0.99-4.006,3.035C7.112,2.226,5.53,1.232,4.007,1.232L4.007,1.232z"/>
</g>
</svg>
