<?xml version="1.0" encoding="utf-8"?>
<!-- Generator: Adobe Illustrator 17.0.0, SVG Export Plug-In . SVG Version: 6.00 Build 0)  -->
<!DOCTYPE svg PUBLIC "-//W3C//DTD SVG 1.1//EN" "http://www.w3.org/Graphics/SVG/1.1/DTD/svg11.dtd">
<svg version="1.1" id="Layer_1" xmlns="http://www.w3.org/2000/svg" xmlns:xlink="http://www.w3.org/1999/xlink" x="0px" y="0px"
	 width="16px" height="16px" viewBox="0 0 16 16" enable-background="new 0 0 16 16" xml:space="preserve">
<path fill-rule="evenodd" clip-rule="evenodd" fill="#9BA9AA" d="M13.002,8.18c1.332,1.332,1.332,3.49,0,4.822
	c-1.332,1.332-3.49,1.332-4.822,0c-1.332-1.332-0.528-2.687,0.804-4.018C10.315,7.652,11.67,6.848,13.002,8.18z M9.787,9.787
	c-0.888,0.888-1.691,1.523-0.804,2.411c0.888,0.888,2.327,0.888,3.215,0c0.888-0.888,0.888-2.327,0-3.215
	C11.311,8.096,10.675,8.9,9.787,9.787z M6.974,10.189L6.423,9.637c-2.712,1.924-5.553,2.484-6.279,1.757
	c-0.81-0.809,1.952-2.241,4.801-4.843L4.686,6.294C3.86,6.424,2.894,6.109,2.152,5.367c-1.11-1.11-1.29-2.729-0.402-3.617
	c0.888-0.888,2.507-0.708,3.617,0.402C6.109,2.894,6.424,3.86,6.294,4.687l0.258,0.258c2.602-2.849,4.033-5.611,4.843-4.801
	c0.727,0.727,0.167,3.567-1.757,6.279l0.552,0.552c0.222,0.222,0.222,0.582,0,0.804L8.984,8.984l-1.205,1.206
	C7.556,10.411,7.196,10.411,6.974,10.189z"/>
</svg>
