<?xml version="1.0" encoding="utf-8"?>
<!-- Generator: Adobe Illustrator 17.0.0, SVG Export Plug-In . SVG Version: 6.00 Build 0)  -->
<!DOCTYPE svg PUBLIC "-//W3C//DTD SVG 1.1//EN" "http://www.w3.org/Graphics/SVG/1.1/DTD/svg11.dtd">
<svg version="1.1" id="Layer_1" xmlns="http://www.w3.org/2000/svg" xmlns:xlink="http://www.w3.org/1999/xlink" x="0px" y="0px"
	 width="16px" height="16px" viewBox="0 0 16 16" enable-background="new 0 0 16 16" xml:space="preserve">
<g>
	<path fill="#CAD2D2" d="M7.972,1c0.633,0.002,0.9,0.157,0.93,0.188l0.244,0.428l0.488,0.068c0.567,0.079,0.957,0.301,1.193,0.68
		c0.397,0.64,0.307,1.593,0.157,2.043l-0.252,0.757l0.426,0.258c0.075,0.261,0.154,0.679,0.141,0.833
		c-0.053,0.437,0.067,0.86,0.336,1.19c0.046,0.056,0.095,0.109,0.149,0.159c-0.742,0.566-1.832,1.253-2.336,1.517L8.912,9.403v0.605
		L8.909,10.33c-0.004,0.277-0.001,0.365,0.042,0.846l0.012,0.133l0.047,0.125c0.434,1.164,1.626,1.634,2.779,2.089
		c1.133,0.447,1.96,0.82,2.388,1.476H1.825c0.43-0.655,1.26-1.029,2.397-1.475c1.157-0.454,2.354-0.924,2.788-2.089l0.047-0.125
		l0.012-0.133c0.044-0.483,0.047-0.571,0.043-0.848l-0.003-0.321L7.108,9.402L6.572,9.121c-0.45-0.236-1.421-0.848-2.151-1.389
		c0.033-0.031,0.064-0.064,0.094-0.097c0.28-0.316,0.405-0.732,0.352-1.166C4.855,6.291,4.946,5.776,5.029,5.471l0.367-0.223
		l-0.187-0.72C4.888,3.296,4.931,2.401,5.336,1.866C5.753,1.317,6.64,1.026,7.972,1 M7.963,0C4.468,0.064,3.475,1.836,4.241,4.779
		C4.105,4.862,3.819,6.116,3.875,6.583c0.067,0.555-0.567,0.649-0.978,0.649c-0.147,0-0.266-0.012-0.313-0.019
		c0.098,0.815,3.237,2.644,3.525,2.795c0,0.58,0.022,0.443-0.036,1.078C5.382,12.942,0.715,12.421,0.5,16h15
		c-0.215-3.579-4.861-3.058-5.553-4.914c-0.058-0.635-0.036-0.498-0.036-1.078c0.288-0.151,3.459-1.986,3.547-2.799
		c0.227-0.018-1.271,0.038-1.167-0.833c0.056-0.468-0.223-1.569-0.359-1.652c0.369-1.107,0.39-3.676-2.161-4.03
		C9.509,0.233,8.837,0,7.963,0L7.963,0z M2.566,7.207c-0.01,0-0.003,0.002,0.018,0.005c0-0.001,0-0.003-0.001-0.004
		C2.575,7.208,2.569,7.207,2.566,7.207L2.566,7.207z"/>
</g>
</svg>
