<?xml version="1.0" encoding="utf-8"?>
<!-- Generator: Adobe Illustrator 17.0.0, SVG Export Plug-In . SVG Version: 6.00 Build 0)  -->
<!DOCTYPE svg PUBLIC "-//W3C//DTD SVG 1.1//EN" "http://www.w3.org/Graphics/SVG/1.1/DTD/svg11.dtd">
<svg version="1.1" id="Layer_1" xmlns="http://www.w3.org/2000/svg" xmlns:xlink="http://www.w3.org/1999/xlink" x="0px" y="0px"
	 width="16px" height="16px" viewBox="0 0 16 16" enable-background="new 0 0 16 16" xml:space="preserve">
<g>
	<path fill="#CAD2D2" d="M8,1c3.86,0,7,3.14,7,7c0,3.86-3.14,7-7,7s-7-3.14-7-7C1,4.14,4.14,1,8,1 M6,6H4H3v1v2v1h1h2v2v1h1h2h1v-1
		v-2h2h1V9V7V6h-1h-2V4V3H9H7H6v1V6 M8,0C3.582,0,0,3.582,0,8c0,4.418,3.582,8,8,8s8-3.582,8-8C16,3.582,12.418,0,8,0L8,0z M4,9V7h3
		V4h2v3h3v2H9v3H7V9H4L4,9z"/>
</g>
</svg>
