<?xml version="1.0" encoding="utf-8"?>
<!-- Generator: Adobe Illustrator 17.0.0, SVG Export Plug-In . SVG Version: 6.00 Build 0)  -->
<!DOCTYPE svg PUBLIC "-//W3C//DTD SVG 1.1//EN" "http://www.w3.org/Graphics/SVG/1.1/DTD/svg11.dtd">
<svg version="1.1" id="Layer_1" xmlns="http://www.w3.org/2000/svg" xmlns:xlink="http://www.w3.org/1999/xlink" x="0px" y="0px"
	 width="16px" height="16px" viewBox="0 0 16 16" enable-background="new 0 0 16 16" xml:space="preserve">
<g>
	<path fill="#CAD2D2" d="M10.69,2.155c-0.093,0.908-0.58,2.539-1.868,4.355L8.333,7.199L8.93,7.796l0.247,0.247l-0.9,0.9l-0.9,0.9
		L7.13,9.597L6.533,8.999L5.844,9.488c-1.663,1.18-3.318,1.768-4.351,1.865c0.38-0.335,0.901-0.742,1.357-1.099
		c0.795-0.622,1.784-1.397,2.769-2.297l0.773-0.706l-0.74-0.74L5.394,6.253l-0.36-0.36L4.531,5.973
		C4.46,5.984,4.388,5.989,4.315,5.989c-0.504,0-1.034-0.242-1.455-0.663C2.488,4.955,2.246,4.483,2.196,4.032
		C2.172,3.814,2.174,3.408,2.458,3.124C2.682,2.9,2.981,2.853,3.193,2.853c0.497,0,1.045,0.252,1.467,0.673
		c0.485,0.485,0.732,1.125,0.646,1.671L5.227,5.7l0.36,0.36l0.258,0.258l0.74,0.74L7.29,6.285C8.19,5.3,8.965,4.311,9.587,3.516
		C9.945,3.059,10.354,2.536,10.69,2.155 M11.074,0.666c-0.851,0-2.234,2.439-4.522,4.945L6.294,5.353
		c0.13-0.826-0.185-1.793-0.927-2.534C4.732,2.183,3.93,1.853,3.193,1.853c-0.55,0-1.063,0.184-1.443,0.564
		C0.863,3.305,1.043,4.924,2.152,6.034c0.633,0.633,1.429,0.955,2.163,0.955c0.126,0,0.25-0.01,0.372-0.029l0.258,0.258
		c-2.849,2.601-5.611,4.033-4.801,4.843c0.204,0.204,0.573,0.306,1.059,0.306c1.249,0,3.268-0.678,5.221-2.064l0.552,0.552
		c0.111,0.111,0.256,0.166,0.402,0.166c0.145,0,0.291-0.055,0.402-0.166L8.984,9.65l1.206-1.206c0.222-0.222,0.222-0.582,0-0.804
		L9.637,7.089c1.924-2.712,2.484-5.553,1.757-6.279C11.297,0.712,11.191,0.666,11.074,0.666L11.074,0.666z M11.554,8.163
		c-0.858,0-1.719,0.636-2.57,1.487c-1.331,1.332-2.135,2.687-0.804,4.018c0.666,0.666,1.538,0.999,2.411,0.999
		c0.873,0,1.745-0.333,2.411-0.999c1.332-1.332,1.332-3.49,0-4.822C12.521,8.366,12.038,8.163,11.554,8.163L11.554,8.163z
		 M10.591,13.531c-0.582,0-1.164-0.222-1.607-0.666c-0.888-0.888-0.084-1.523,0.804-2.411c0.615-0.615,1.109-1.19,1.65-1.19
		c0.24,0,0.489,0.113,0.762,0.386c0.888,0.888,0.888,2.327,0,3.215C11.755,13.309,11.173,13.531,10.591,13.531L10.591,13.531z"/>
</g>
</svg>
