<?xml version="1.0" encoding="utf-8"?>
<!-- Generator: Adobe Illustrator 17.0.0, SVG Export Plug-In . SVG Version: 6.00 Build 0)  -->
<!DOCTYPE svg PUBLIC "-//W3C//DTD SVG 1.1//EN" "http://www.w3.org/Graphics/SVG/1.1/DTD/svg11.dtd">
<svg version="1.1" id="Layer_1" xmlns="http://www.w3.org/2000/svg" xmlns:xlink="http://www.w3.org/1999/xlink" x="0px" y="0px"
	 width="16px" height="16px" viewBox="0 0 16 16" enable-background="new 0 0 16 16" xml:space="preserve">
<g>
	<path fill="#CAD2D2" d="M9,1v0.5c0,0.74,0.625,1.001,1.128,1.211c0.157,0.065,0.332,0.136,0.476,0.215l0.602,0.33l0.524-0.443
		l1.308-1.105l0.727,0.736l-1.051,1.109l-0.536,0.566l0.418,0.658c0.144,0.227,0.31,0.402,0.456,0.557
		c0.251,0.266,0.402,0.426,0.46,0.814L13.639,7H14.5H15v1h-0.5c-0.317,0-0.796,0-2.001,1.807l-0.494,0.741l0.68,0.576l0.786,0.666
		l-0.638,0.608l-1.196-1.097l-0.516-0.473l-0.621,0.322c-0.129,0.067-0.281,0.124-0.415,0.176C9.652,11.495,9,11.749,9,12.5V14H7
		v-1.5c0-0.812-0.695-1.164-0.957-1.297l-0.7-0.355l-0.511,0.596l-0.817,0.953l-0.591-0.563l0.856-0.776l0.632-0.573L4.445,9.77
		C3.289,8,2.814,8,2.5,8H1V7h1.5h0.861l0.128-0.852c0.06-0.403,0.209-0.565,0.455-0.835c0.137-0.15,0.292-0.32,0.43-0.537
		l0.408-0.642L4.272,3.57L3.157,2.336l0.604-0.612L4.69,2.705L5.22,3.266l0.677-0.371C6.255,2.698,7,2.289,7,1.5V1H9 M8.854,9.475
		l0.707-0.707l0.707-0.707l0.707-0.707l-0.707-0.707L8.854,5.232L8.147,4.525L7.439,5.232L6.732,5.939L6.025,6.646l0.707,0.707
		l1.414,1.414L8.854,9.475 M10,0H6v1.5c0,0.124-0.155,0.282-0.584,0.518l-1.64-1.733l-1.995,2.02L3.53,4.241
		C3.223,4.724,2.65,5,2.5,6H0v3h2.5c0.155,0,0.781,0.817,1.107,1.317l-1.653,1.498l2.133,2.033l1.503-1.753
		C5.972,12.288,6,12.393,6,12.5V15h4v-2.5c0-0.112,0.565-0.256,0.96-0.461l1.885,1.729l2.119-2.02l-1.634-1.385
		C13.672,9.85,14.34,9,14.5,9H16V6h-1.5c-0.15-1-0.754-1.276-1.061-1.759l1.717-1.811l-2.057-2.083l-2.015,1.702
		C10.654,1.813,10,1.624,10,1.5V0L10,0z M8.854,8.061L7.439,6.646l0.707-0.707l1.414,1.414L8.854,8.061L8.854,8.061z"/>
</g>
</svg>
