<?xml version="1.0" encoding="utf-8"?>
<!-- Generator: Adobe Illustrator 17.0.0, SVG Export Plug-In . SVG Version: 6.00 Build 0)  -->
<!DOCTYPE svg PUBLIC "-//W3C//DTD SVG 1.1//EN" "http://www.w3.org/Graphics/SVG/1.1/DTD/svg11.dtd">
<svg version="1.1" id="Layer_1" xmlns="http://www.w3.org/2000/svg" xmlns:xlink="http://www.w3.org/1999/xlink" x="0px" y="0px"
	 width="16px" height="16px" viewBox="0 0 16 16" enable-background="new 0 0 16 16" xml:space="preserve">
<g>
	<g>
		<path fill="#CBD3D2" d="M1.552,13.341l1.108,1.108l-1.384,0.277L1.552,13.341 M0.938,11.312L0,16l4.688-0.938L0.938,11.312
			L0.938,11.312z"/>
	</g>
	<g>
		<path fill="#CBD3D2" d="M12.188,1.476l2.336,2.336L14.1,4.236L11.765,1.9L12.188,1.476 M12.188,0.062L10.35,1.9l3.75,3.75
			l1.838-1.838L12.188,0.062L12.188,0.062z"/>
	</g>
	<g>
		<path fill="#CBD3D2" d="M9.338,4.326l2.336,2.336l-6.048,6.048l-2.336-2.336L9.338,4.326 M9.338,2.912l-7.463,7.463l3.75,3.75
			l7.463-7.462L9.338,2.912L9.338,2.912z"/>
	</g>
</g>
</svg>
