<?xml version="1.0" encoding="utf-8"?>
<!-- Generator: Adobe Illustrator 17.0.0, SVG Export Plug-In . SVG Version: 6.00 Build 0)  -->
<!DOCTYPE svg PUBLIC "-//W3C//DTD SVG 1.1//EN" "http://www.w3.org/Graphics/SVG/1.1/DTD/svg11.dtd">
<svg version="1.1" id="Layer_1" xmlns="http://www.w3.org/2000/svg" xmlns:xlink="http://www.w3.org/1999/xlink" x="0px" y="0px"
	 width="16px" height="16px" viewBox="0 0 16 16" enable-background="new 0 0 16 16" xml:space="preserve">
<g>
	<path fill="#CAD2D2" d="M8,0C3.582,0,0,3.582,0,8c0,4.418,3.582,8,8,8s8-3.582,8-8C16,3.582,12.418,0,8,0L8,0z M8,15
		c-3.866,0-7-3.134-7-7c0-3.866,3.134-7,7-7c3.866,0,7,3.134,7,7C15,11.866,11.866,15,8,15L8,15z M8.055,3.732
		c-1.118,0-2.158,0.455-2.847,1.261l1.053,1.183C6.664,5.695,7.21,5.37,7.86,5.37c0.715,0,1.014,0.338,1.014,0.741
		c0,0.897-1.898,1.079-1.898,2.626c0,0.455,0.156,0.845,0.429,1.144l1.417-0.416c-0.13-0.117-0.234-0.338-0.234-0.546
		c0-1.092,2.171-1.235,2.171-3.133C10.759,4.577,9.733,3.732,8.055,3.732L8.055,3.732z M8.029,10.57
		c-0.572,0-1.053,0.481-1.053,1.053c0,0.572,0.481,1.053,1.053,1.053c0.572,0,1.053-0.481,1.053-1.053
		C9.083,11.051,8.601,10.57,8.029,10.57L8.029,10.57z"/>
</g>
</svg>
