<?xml version="1.0" encoding="utf-8"?>
<!-- Generator: Adobe Illustrator 17.0.0, SVG Export Plug-In . SVG Version: 6.00 Build 0)  -->
<!DOCTYPE svg PUBLIC "-//W3C//DTD SVG 1.1//EN" "http://www.w3.org/Graphics/SVG/1.1/DTD/svg11.dtd">
<svg version="1.1" id="Layer_1" xmlns="http://www.w3.org/2000/svg" xmlns:xlink="http://www.w3.org/1999/xlink" x="0px" y="0px"
	 width="14px" height="14px" viewBox="0 0 14 14" enable-background="new 0 0 14 14" xml:space="preserve">
<path fill-rule="evenodd" clip-rule="evenodd" fill="#FFFFFF" d="M6.854,11.022h0.814c0,0,0.246-0.028,0.372-0.166
	c0.116-0.127,0.112-0.364,0.112-0.364S8.135,9.379,8.642,9.215c0.5-0.162,1.142,1.076,1.822,1.551
	c0.514,0.36,0.905,0.281,0.905,0.281l1.819-0.026c0,0,0.951-0.06,0.5-0.822c-0.037-0.062-0.263-0.564-1.352-1.594
	c-1.141-1.079-0.988-0.904,0.386-2.77c0.837-1.136,1.171-1.83,1.066-2.127c-0.1-0.283-0.715-0.208-0.715-0.208l-2.048,0.013
	c0,0-0.152-0.021-0.265,0.048c-0.11,0.067-0.181,0.224-0.181,0.224s-0.324,0.879-0.756,1.627C8.912,6.989,8.548,7.073,8.399,6.974
	c-0.347-0.228-0.26-0.917-0.26-1.407c0-1.529,0.228-2.167-0.443-2.332C7.473,3.181,7.309,3.145,6.739,3.139
	C6.009,3.132,5.39,3.142,5.04,3.316c-0.233,0.116-0.413,0.375-0.303,0.39c0.135,0.018,0.442,0.084,0.604,0.31
	C5.551,4.307,5.544,4.96,5.544,4.96s0.121,1.8-0.282,2.023c-0.276,0.153-0.655-0.16-1.468-1.591C3.378,4.66,3.064,3.849,3.064,3.849
	S3.003,3.698,2.895,3.616C2.764,3.518,2.58,3.487,2.58,3.487L0.634,3.5c0,0-0.292,0.008-0.399,0.138
	C0.139,3.753,0.227,3.991,0.227,3.991s1.523,3.632,3.248,5.462C5.058,11.132,6.854,11.022,6.854,11.022L6.854,11.022z"/>
</svg>
