<?xml version="1.0" encoding="utf-8"?>
<!-- Generator: Adobe Illustrator 17.0.0, SVG Export Plug-In . SVG Version: 6.00 Build 0)  -->
<!DOCTYPE svg PUBLIC "-//W3C//DTD SVG 1.1//EN" "http://www.w3.org/Graphics/SVG/1.1/DTD/svg11.dtd">
<svg version="1.1" id="Layer_1" xmlns="http://www.w3.org/2000/svg" xmlns:xlink="http://www.w3.org/1999/xlink" x="0px" y="0px"
	 width="16px" height="16px" viewBox="0 0 16 16" enable-background="new 0 0 16 16" xml:space="preserve">
<path fill-rule="evenodd" clip-rule="evenodd" fill="#FFFFFF" d="M3.54,2h8.92C13.307,2,14,2.693,14,3.54v8.92
	c0,0.847-0.693,1.54-1.54,1.54H3.54C2.693,14,2,13.307,2,12.46V3.54C2,2.693,2.693,2,3.54,2L3.54,2z M10.742,3.333
	c-0.297,0-0.54,0.243-0.54,0.54v1.293c0,0.297,0.243,0.54,0.54,0.54h1.356c0.297,0,0.54-0.243,0.54-0.54V3.873
	c0-0.297-0.243-0.54-0.54-0.54H10.742L10.742,3.333z M12.644,7.075h-1.056c0.1,0.326,0.154,0.672,0.154,1.03
	c0,1.996-1.67,3.614-3.73,3.614s-3.73-1.618-3.73-3.614c0-0.358,0.054-0.703,0.154-1.03H3.333v5.069
	c0,0.262,0.215,0.477,0.477,0.477h8.356c0.263,0,0.477-0.215,0.477-0.477V7.075L12.644,7.075z M8.012,5.639
	c-1.331,0-2.41,1.045-2.41,2.335c0,1.29,1.079,2.335,2.41,2.335c1.331,0,2.41-1.045,2.41-2.335
	C10.422,6.684,9.343,5.639,8.012,5.639z"/>
</svg>
