<?xml version="1.0" encoding="utf-8"?>
<!-- Generator: Adobe Illustrator 17.0.0, SVG Export Plug-In . SVG Version: 6.00 Build 0)  -->
<!DOCTYPE svg PUBLIC "-//W3C//DTD SVG 1.1//EN" "http://www.w3.org/Graphics/SVG/1.1/DTD/svg11.dtd">
<svg version="1.1" id="Layer_1" xmlns="http://www.w3.org/2000/svg" xmlns:xlink="http://www.w3.org/1999/xlink" x="0px" y="0px"
	 width="16px" height="16px" viewBox="0 0 16 16" enable-background="new 0 0 16 16" xml:space="preserve">
<g>
	<path fill="#CAD2D2" d="M7.972,1c0.633,0.002,0.9,0.157,0.93,0.188l0.244,0.428l0.488,0.068c0.446,0.062,0.616,0.25,0.713,0.408
		c0.453,0.729,0.183,2.295-0.109,3.17L9.986,6.019l0.506,0.306c-0.012,0.086-0.027,0.152-0.041,0.202L9.897,6.572L9.809,7.395
		c-0.05,0.463-0.32,1.012-0.459,1.198l-0.438,0.23v0.605L8.91,9.789c-0.004,0.434-0.008,0.844,0.042,1.387l0.012,0.133l0.047,0.125
		c0.434,1.164,1.626,1.634,2.779,2.089c1.133,0.447,1.96,0.82,2.388,1.476H1.825c0.43-0.655,1.26-1.029,2.397-1.475
		c1.157-0.454,2.354-0.924,2.788-2.089l0.047-0.125l0.012-0.133c0.049-0.545,0.046-0.955,0.042-1.39L7.109,9.427V8.821L6.665,8.589
		C6.522,8.405,6.24,7.855,6.191,7.395L6.103,6.572L5.55,6.527c-0.013-0.05-0.028-0.116-0.04-0.203l0.458-0.278L5.78,5.326
		C5.35,3.673,5.393,2.443,5.905,1.768C6.276,1.278,6.972,1.02,7.972,1 M7.963,0c-3.495,0.064-3.917,2.634-3.15,5.577
		C4.676,5.66,4.452,5.924,4.508,6.391c0.105,0.871,0.462,1.092,0.688,1.11C5.283,8.314,5.82,9.276,6.109,9.427
		c0,0.58,0.022,1.024-0.036,1.659C5.382,12.942,0.715,12.421,0.5,16h15c-0.215-3.579-4.861-3.058-5.553-4.914
		c-0.058-0.635-0.036-1.078-0.036-1.659c0.288-0.151,0.804-1.113,0.892-1.926c0.227-0.018,0.584-0.239,0.689-1.11
		c0.056-0.468-0.168-0.731-0.304-0.814c0.369-1.107,1.134-4.531-1.416-4.884C9.509,0.233,8.837,0,7.963,0L7.963,0z"/>
</g>
</svg>
