<?xml version="1.0" encoding="utf-8"?>
<!-- Generator: Adobe Illustrator 17.0.0, SVG Export Plug-In . SVG Version: 6.00 Build 0)  -->
<!DOCTYPE svg PUBLIC "-//W3C//DTD SVG 1.1//EN" "http://www.w3.org/Graphics/SVG/1.1/DTD/svg11.dtd">
<svg version="1.1" id="Layer_1" xmlns="http://www.w3.org/2000/svg" xmlns:xlink="http://www.w3.org/1999/xlink" x="0px" y="0px"
	 width="16px" height="16px" viewBox="0 0 16 16" enable-background="new 0 0 16 16" xml:space="preserve">
<g id="Star">
	<path fill="#CAD2D2" d="M8,2.995l1.709,3.906L9.971,7.5h0.654h2.524l-2.774,2.219l-0.579,0.463l0.276,0.689l0.898,2.244
		l-2.455-1.473L8,11.334l-0.515,0.309l-2.455,1.473l0.898-2.244l0.276-0.689L5.625,9.719L2.851,7.5h2.524h0.654l0.262-0.599L8,2.995
		 M8,0.5l-2.625,6H0l5,4l-2,5l5-3l5,3l-2-5l5-4h-5.375L8,0.5L8,0.5z"/>
</g>
</svg>
