<?xml version="1.0" encoding="utf-8"?>
<!-- Generator: Adobe Illustrator 17.0.0, SVG Export Plug-In . SVG Version: 6.00 Build 0)  -->
<!DOCTYPE svg PUBLIC "-//W3C//DTD SVG 1.1//EN" "http://www.w3.org/Graphics/SVG/1.1/DTD/svg11.dtd">
<svg version="1.1" id="Layer_1" xmlns="http://www.w3.org/2000/svg" xmlns:xlink="http://www.w3.org/1999/xlink" x="0px" y="0px"
	 width="16px" height="16px" viewBox="0 0 16 16" enable-background="new 0 0 16 16" xml:space="preserve">
<path fill-rule="evenodd" clip-rule="evenodd" fill="#CAD2D2" d="M8,13c-4.418,0-8-5.972-8-6c0-0.098,3.582-5,8-5s8,5.015,8,5
	C16,6.992,12.418,13,8,13z M8,3C4.134,3,1,6.957,1,7c0,0.044,3.134,5,7,5s7-4.944,7-5C15,6.941,11.866,3,8,3z M8,10
	c-1.657,0-3-1.343-3-3c0-1.657,1.343-3,3-3c1.657,0,3,1.343,3,3C11,8.657,9.657,10,8,10z M8,6C7.448,6,7,6.448,7,7
	c0,0.552,0.448,1,1,1s1-0.448,1-1C9,6.448,8.552,6,8,6z"/>
</svg>
