<?xml version="1.0" encoding="utf-8"?>
<!-- Generator: Adobe Illustrator 17.0.0, SVG Export Plug-In . SVG Version: 6.00 Build 0)  -->
<!DOCTYPE svg PUBLIC "-//W3C//DTD SVG 1.1//EN" "http://www.w3.org/Graphics/SVG/1.1/DTD/svg11.dtd">
<svg version="1.1" id="Layer_1" xmlns="http://www.w3.org/2000/svg" xmlns:xlink="http://www.w3.org/1999/xlink" x="0px" y="0px"
	 width="14px" height="14px" viewBox="0 0 14 14" enable-background="new 0 0 14 14" xml:space="preserve">
<g>
	<path fill="#CBD3D2" d="M13,1v2h-2V1H13 M8,1v2H6V1H8 M3,1v2H1V1H3 M13,6v2h-2V6H13 M8,6v2H6V6H8 M3,6v2H1V6H3 M13,11v2h-2v-2H13
		 M8,11v2H6v-2H8 M3,11v2H1v-2H3 M14,0h-4v4h4V0L14,0z M9,0H5v4h4V0L9,0z M4,0H0v4h4V0L4,0z M14,5h-4v4h4V5L14,5z M9,5H5v4h4V5L9,5z
		 M4,5H0v4h4V5L4,5z M14,10h-4v4h4V10L14,10z M9,10H5v4h4V10L9,10z M4,10H0v4h4V10L4,10z"/>
</g>
</svg>
