<?xml version="1.0" encoding="utf-8"?>
<!-- Generator: Adobe Illustrator 17.0.0, SVG Export Plug-In . SVG Version: 6.00 Build 0)  -->
<!DOCTYPE svg PUBLIC "-//W3C//DTD SVG 1.1//EN" "http://www.w3.org/Graphics/SVG/1.1/DTD/svg11.dtd">
<svg version="1.1" id="Layer_1" xmlns="http://www.w3.org/2000/svg" xmlns:xlink="http://www.w3.org/1999/xlink" x="0px" y="0px"
	 width="16px" height="16px" viewBox="0 0 16 16" enable-background="new 0 0 16 16" xml:space="preserve">
<g>
	<path fill="#FFFFFF" d="M10.828,5.172L10.828,5.172L8.707,7.293L8,8l0.707,0.707l2.121,2.121l0,0L8.707,8.707L8,8l0.707-0.707
		L10.828,5.172 M5.172,5.172l1.273,1.273L5.172,5.172L5.172,5.172 M6.444,9.556l-1.273,1.273l0,0L6.444,9.556 M8,0
		C3.582,0,0,3.582,0,8s3.582,8,8,8s8-3.582,8-8S12.418,0,8,0L8,0z M8,15c-3.866,0-7-3.134-7-7s3.134-7,7-7s7,3.134,7,7
		S11.866,15,8,15L8,15z M10.828,3.757L8,6.586L5.172,3.757L3.757,5.172L6.586,8l-2.828,2.828l1.414,1.414L8,9.414l2.829,2.828
		l1.414-1.414L9.414,8l2.828-2.828L10.828,3.757L10.828,3.757z"/>
</g>
</svg>
