<?xml version="1.0" encoding="utf-8"?>
<!-- Generator: Adobe Illustrator 17.0.0, SVG Export Plug-In . SVG Version: 6.00 Build 0)  -->
<!DOCTYPE svg PUBLIC "-//W3C//DTD SVG 1.1//EN" "http://www.w3.org/Graphics/SVG/1.1/DTD/svg11.dtd">
<svg version="1.1" id="Layer_1" xmlns="http://www.w3.org/2000/svg" xmlns:xlink="http://www.w3.org/1999/xlink" x="0px" y="0px"
	 width="16px" height="16px" viewBox="0 0 16 16" enable-background="new 0 0 16 16" xml:space="preserve">
<g>
	<path fill="#CAD2D2" d="M9,0H8C6.619,0,5.5,1.119,5.5,2.5v6C5.5,9.881,6.619,11,8,11h1c1.381,0,2.5-1.119,2.5-2.5v-6
		C11.5,1.119,10.381,0,9,0L9,0z M8,10c-0.828,0-1.5-0.672-1.5-1.5v-6C6.5,1.672,7.172,1,8,1h1c0.828,0,1.5,0.672,1.5,1.5v6
		C10.5,9.328,9.828,10,9,10H8L8,10z M13,2c-0.276,0-0.5,0.448-0.5,1v3.5c0,3.038-0.462,5.5-3.5,5.5H8c-3.038,0-3.5-2.462-3.5-5.5V3
		c0-0.552-0.224-1-0.5-1S3.5,2.448,3.5,3v5.5c0,2.314,1.753,4.198,4,4.45v1.173c-1.163,0.275-2,1.008-2,1.877h6
		c0-0.87-0.837-1.602-2-1.877V12.95c2.247-0.252,4-2.136,4-4.45V3C13.5,2.448,13.276,2,13,2L13,2z M8,2C7.724,2,7.5,2.224,7.5,2.5
		S7.724,3,8,3s0.5-0.224,0.5-0.5S8.276,2,8,2L8,2z M9,3C8.724,3,8.5,3.224,8.5,3.5S8.724,4,9,4s0.5-0.224,0.5-0.5S9.276,3,9,3L9,3z
		 M8,4C7.724,4,7.5,4.224,7.5,4.5S7.724,5,8,5s0.5-0.224,0.5-0.5S8.276,4,8,4L8,4z M9,5C8.724,5,8.5,5.224,8.5,5.5S8.724,6,9,6
		s0.5-0.224,0.5-0.5S9.276,5,9,5L9,5z M8,6C7.724,6,7.5,6.224,7.5,6.5S7.724,7,8,7s0.5-0.224,0.5-0.5S8.276,6,8,6L8,6z M9,7
		C8.724,7,8.5,7.224,8.5,7.5S8.724,8,9,8s0.5-0.224,0.5-0.5S9.276,7,9,7L9,7z M8,8C7.724,8,7.5,8.224,7.5,8.5S7.724,9,8,9
		s0.5-0.224,0.5-0.5S8.276,8,8,8L8,8z"/>
</g>
</svg>
