<?xml version="1.0" encoding="utf-8"?>
<!-- Generator: Adobe Illustrator 17.0.0, SVG Export Plug-In . SVG Version: 6.00 Build 0)  -->
<!DOCTYPE svg PUBLIC "-//W3C//DTD SVG 1.1//EN" "http://www.w3.org/Graphics/SVG/1.1/DTD/svg11.dtd">
<svg version="1.1" id="Layer_1" xmlns="http://www.w3.org/2000/svg" xmlns:xlink="http://www.w3.org/1999/xlink" x="0px" y="0px"
	 width="14px" height="14px" viewBox="0 0 14 14" enable-background="new 0 0 14 14" xml:space="preserve">
<path fill-rule="evenodd" clip-rule="evenodd" fill="#FFFFFF" d="M13.5,3.184c-0.478,0.201-0.992,0.336-1.532,0.397
	c0.551-0.313,0.974-0.807,1.173-1.397c-0.515,0.289-1.086,0.499-1.694,0.613C10.961,2.307,10.268,2,9.5,2
	C8.028,2,6.833,3.13,6.833,4.524c0,0.198,0.024,0.391,0.069,0.575C4.686,4.995,2.72,3.99,1.405,2.462
	c-0.23,0.373-0.361,0.806-0.361,1.269c0,0.876,0.471,1.648,1.186,2.101C1.793,5.819,1.382,5.706,1.022,5.517c0,0.01,0,0.021,0,0.032
	c0,1.223,0.919,2.243,2.139,2.475C2.938,8.082,2.702,8.112,2.459,8.112c-0.172,0-0.339-0.016-0.502-0.045
	C2.297,9.07,3.281,9.8,4.449,9.82c-0.913,0.677-2.063,1.081-3.312,1.081c-0.215,0-0.428-0.012-0.636-0.035
	C1.68,11.582,3.082,12,4.588,12c4.906,0,7.589-3.847,7.589-7.183c0-0.109-0.003-0.218-0.008-0.327
	C12.69,4.135,13.142,3.69,13.5,3.184"/>
</svg>
