<?xml version="1.0" encoding="utf-8"?>
<!-- Generator: Adobe Illustrator 17.0.0, SVG Export Plug-In . SVG Version: 6.00 Build 0)  -->
<!DOCTYPE svg PUBLIC "-//W3C//DTD SVG 1.1//EN" "http://www.w3.org/Graphics/SVG/1.1/DTD/svg11.dtd">
<svg version="1.1" id="Layer_1" xmlns="http://www.w3.org/2000/svg" xmlns:xlink="http://www.w3.org/1999/xlink" x="0px" y="0px"
	 width="16px" height="16px" viewBox="0 0 16 16" enable-background="new 0 0 16 16" xml:space="preserve">
<g>
	<path fill="#CAD2D2" d="M10,1v1h1h4v1h-1h-1h-1h-1h-1H9H8H7H6H5H4V2h4h1V1H10 M14,14h-1H6H5h1h1h1h1h1h1h1h1H14 M10.5,0h-2
		C8.224,0,8,0.224,8,0.5V1H4C3.448,1,3,1.448,3,2v1c0,0.552,0.448,1,1,1v9c0,0.114,0.015,0.224,0.034,0.333
		C4.015,13.386,4,13.441,4,13.5v1C4,14.776,4.224,15,4.5,15H6h7h1.5c0.276,0,0.5-0.224,0.5-0.5v-1c0-0.059-0.015-0.114-0.034-0.167
		C14.985,13.225,15,13.114,15,13V4c0.552,0,1-0.448,1-1V2c0-0.552-0.448-1-1-1h-4V0.5C11,0.224,10.776,0,10.5,0L10.5,0z M13,13V4h1
		v9H13L13,13z M11,13V4h1v9H11L11,13z M9,13V4h1v9H9L9,13z M7,13V4h1v9H7L7,13z M5,13V4h1v9H5L5,13z"/>
</g>
</svg>
