<?xml version="1.0" encoding="utf-8"?>
<!-- Generator: Adobe Illustrator 17.0.0, SVG Export Plug-In . SVG Version: 6.00 Build 0)  -->
<!DOCTYPE svg PUBLIC "-//W3C//DTD SVG 1.1//EN" "http://www.w3.org/Graphics/SVG/1.1/DTD/svg11.dtd">
<svg version="1.1" id="Layer_1" xmlns="http://www.w3.org/2000/svg" xmlns:xlink="http://www.w3.org/1999/xlink" x="0px" y="0px"
	 width="16px" height="16px" viewBox="0 0 16 16" enable-background="new 0 0 16 16" xml:space="preserve">
<g>
	<polygon fill="#9BA9AA" points="4,2 0,2 0,3 2,3 3,10 3,11 3,12 14,12 14,11 4,11 4,10 14,10 15,3 14,3 13,9 4,9 3,3 4,3 	"/>
</g>
<g>
	<path fill="#9BA9AA" d="M4.5,13C4.776,13,5,13.224,5,13.5S4.776,14,4.5,14S4,13.776,4,13.5S4.224,13,4.5,13 M4.5,12
		C3.672,12,3,12.672,3,13.5S3.672,15,4.5,15S6,14.328,6,13.5S5.328,12,4.5,12L4.5,12z"/>
</g>
<g>
	<path fill="#9BA9AA" d="M12.5,13c0.276,0,0.5,0.224,0.5,0.5S12.776,14,12.5,14S12,13.776,12,13.5S12.224,13,12.5,13 M12.5,12
		c-0.829,0-1.5,0.672-1.5,1.5s0.672,1.5,1.5,1.5s1.5-0.672,1.5-1.5S13.328,12,12.5,12L12.5,12z"/>
</g>
<g>
	<polygon fill="#9BA9AA" points="6,4 5,4 5,5 6,5 	"/>
</g>
<g>
	<polygon fill="#9BA9AA" points="8,4 7,4 7,5 8,5 	"/>
</g>
<g>
	<polygon fill="#9BA9AA" points="10,4 9,4 9,5 10,5 	"/>
</g>
<g>
	<polygon fill="#9BA9AA" points="12,4 11,4 11,5 12,5 	"/>
</g>
<g>
	<polygon fill="#9BA9AA" points="7,6 6,6 6,7 7,7 	"/>
</g>
<g>
	<polygon fill="#9BA9AA" points="9,6 8,6 8,7 9,7 	"/>
</g>
<g>
	<polygon fill="#9BA9AA" points="11,6 10,6 10,7 11,7 	"/>
</g>
<polygon fill="#9BA9AA" points="14,3 13.401,3 13.182,3 3,3 3,9.25 13.401,9.25 13.401,6.67 14,6.67 "/>
</svg>
