<?xml version="1.0" encoding="utf-8"?>
<!-- Generator: Adobe Illustrator 17.0.0, SVG Export Plug-In . SVG Version: 6.00 Build 0)  -->
<!DOCTYPE svg PUBLIC "-//W3C//DTD SVG 1.1//EN" "http://www.w3.org/Graphics/SVG/1.1/DTD/svg11.dtd">
<svg version="1.1" id="Layer_1" xmlns="http://www.w3.org/2000/svg" xmlns:xlink="http://www.w3.org/1999/xlink" x="0px" y="0px"
	 width="44.141px" height="32.351px" viewBox="0 0 44.141 32.351" enable-background="new 0 0 44.141 32.351" xml:space="preserve">
<g>
	<path fill="#BDC2C7" d="M27.497,5.269L21.141,0v17.269h3v1h-3v0.833l-0.329,0.167h3.329v1h-3v1h3v1h-3v5.184
		c-1-0.533-2.448-1.247-3.841-2.206c-2.561-1.763-4.243-8.189-6.471-10.814C6.8,9.684,2.843,8.694,2.843,8.694
		c-0.646-0.457-1.56-0.303-2.017,0.343l-0.561,0.78c-0.456,0.646-0.308,1.54,0.338,1.997c0,0,3.622,0.501,7.399,4.954
		c2.334,2.751,4.135,9.27,6.946,11.132c8.192,5.425,12.071,4.369,12.071,4.369h11.936c2.637,0,5.186-1.934,5.186-4.571v-4.775V22.27
		h-3v-1h3v-1h-4v-1h4v-1h-5v-1h5V0l-7.096,5.269H27.497z M26.542,12.416c-1.055,0-1.91-0.855-1.91-1.91s0.855-1.91,1.91-1.91
		s1.91,0.855,1.91,1.91S27.596,12.416,26.542,12.416z M39.91,10.506c0,1.055-0.855,1.91-1.91,1.91s-1.91-0.855-1.91-1.91
		s0.855-1.91,1.91-1.91S39.91,9.451,39.91,10.506z"/>
</g>
</svg>
