<?xml version="1.0" encoding="utf-8"?>
<!-- Generator: Adobe Illustrator 17.0.0, SVG Export Plug-In . SVG Version: 6.00 Build 0)  -->
<!DOCTYPE svg PUBLIC "-//W3C//DTD SVG 1.1//EN" "http://www.w3.org/Graphics/SVG/1.1/DTD/svg11.dtd">
<svg version="1.1" id="Layer_1" xmlns="http://www.w3.org/2000/svg" xmlns:xlink="http://www.w3.org/1999/xlink" x="0px" y="0px"
	 width="16px" height="16px" viewBox="0 0 16 16" enable-background="new 0 0 16 16" xml:space="preserve">
<g>
	<path fill="#CAD2D2" d="M12.453,1.2l-0.026,0.272c-0.635,0.419-1.056,1.14-1.056,1.957c0,0.306,0.059,0.599,0.166,0.868
		L11.314,4.74c-0.785,1.552-1.75,2.665-2.648,3.053L8,8.081L7.334,7.793C6.436,7.404,5.471,6.291,4.686,4.739L4.462,4.296
		c0.107-0.268,0.167-0.561,0.167-0.868c0-0.817-0.42-1.537-1.056-1.957L3.547,1.2H12.453 M13.65,0H2.35
		C2.326,0.19,2.286,0.376,2.286,0.571c0,0.175,0.031,0.382,0.05,0.577c-0.017,0-0.033-0.005-0.05-0.005C1.023,1.143,0,2.166,0,3.429
		c0,1.262,1.023,2.286,2.286,2.286c0.498,0,0.955-0.163,1.33-0.433c0.816,1.612,1.948,3.053,3.242,3.613v0.249v1.143v3.429H5.714
		v0.317C4.354,14.427,3.429,15.156,3.429,16h9.143c0-0.844-0.925-1.573-2.286-1.969v-0.317H9.143v-3.429V9.143V8.894
		c1.293-0.56,2.426-2.001,3.242-3.613c0.375,0.27,0.832,0.433,1.33,0.433C14.977,5.714,16,4.691,16,3.429
		c0-1.262-1.023-2.286-2.286-2.286c-0.017,0-0.033,0.005-0.05,0.005c0.019-0.195,0.05-0.402,0.05-0.577
		C13.714,0.376,13.674,0.19,13.65,0L13.65,0z M13.714,4.571c-0.631,0-1.143-0.512-1.143-1.143s0.512-1.143,1.143-1.143
		s1.143,0.512,1.143,1.143S14.345,4.571,13.714,4.571L13.714,4.571z M2.286,4.571c-0.631,0-1.143-0.512-1.143-1.143
		s0.512-1.143,1.143-1.143c0.631,0,1.143,0.512,1.143,1.143S2.917,4.571,2.286,4.571L2.286,4.571z"/>
</g>
</svg>
