<?xml version="1.0" encoding="utf-8"?>
<!-- Generator: Adobe Illustrator 17.0.0, SVG Export Plug-In . SVG Version: 6.00 Build 0)  -->
<!DOCTYPE svg PUBLIC "-//W3C//DTD SVG 1.1//EN" "http://www.w3.org/Graphics/SVG/1.1/DTD/svg11.dtd">
<svg version="1.1" id="Layer_1" xmlns="http://www.w3.org/2000/svg" xmlns:xlink="http://www.w3.org/1999/xlink" x="0px" y="0px"
	 width="16px" height="16px" viewBox="0 0 16 16" enable-background="new 0 0 16 16" xml:space="preserve">
<g>
	<path fill="#CAD2D2" d="M13,3c1.103,0,2,0.897,2,2c0,0.565-0.238,1.09-0.669,1.478l-0.292,0.263l-0.373,0.132
		C13.427,6.959,13.209,7,13,7c-0.505,0-0.99-0.195-1.366-0.549l-0.322-0.303l-0.158-0.38C11.052,5.523,11,5.265,11,5
		c0-0.209,0.041-0.427,0.126-0.665l0.133-0.374l0.263-0.292C11.91,3.238,12.435,3,13,3 M13,2c-0.885,0-1.672,0.39-2.221,1H2
		C0.896,3,0,3.895,0,5v7c0,1.105,0.896,2,2,2h11c1.105,0,2-0.895,2-2V7.221C15.61,6.672,16,5.885,16,5C16,3.343,14.657,2,13,2L13,2z
		 M10.184,4C10.072,4.314,10,4.647,10,5c0,0.409,0.083,0.798,0.231,1.154L7.535,7.694L2.182,4.179C2.432,4.066,2.708,4,3,4H10.184
		L10.184,4z M3,13c-1.105,0-2-0.896-2-2V6c0-0.411,0.125-0.793,0.338-1.111L7,9.233L7.518,9.63L8,9.286l2.949-2.106
		C11.486,7.685,12.204,8,13,8c0.353,0,0.686-0.072,1-0.183V11c0,1.104-0.895,2-2,2H3L3,13z"/>
</g>
</svg>
