<?xml version="1.0" encoding="utf-8"?>
<!-- Generator: Adobe Illustrator 17.0.0, SVG Export Plug-In . SVG Version: 6.00 Build 0)  -->
<!DOCTYPE svg PUBLIC "-//W3C//DTD SVG 1.1//EN" "http://www.w3.org/Graphics/SVG/1.1/DTD/svg11.dtd">
<svg version="1.1" id="Layer_1" xmlns="http://www.w3.org/2000/svg" xmlns:xlink="http://www.w3.org/1999/xlink" x="0px" y="0px"
	 width="16px" height="16px" viewBox="0 0 16 16" enable-background="new 0 0 16 16" xml:space="preserve">
<g>
	<path fill="#CAD2D2" d="M1,1.033C8.476,1.528,14.472,7.524,14.967,15h-1.002C13.473,8.076,7.924,2.527,1,2.035V1.033 M1,7.055
		C5.165,7.518,8.482,10.835,8.945,15H7.938C7.485,11.387,4.613,8.515,1,8.062V7.055 M2,13c0.551,0,1,0.449,1,1c0,0.551-0.449,1-1,1
		s-1-0.449-1-1C1,13.449,1.449,13,2,13 M0,0v3c7.18,0,13,5.82,13,13h3C16,7.163,8.837,0,0,0L0,0z M0,6v3c3.866,0,7,3.134,7,7h3
		C10,10.477,5.523,6,0,6L0,6z M2,12c-1.105,0-2,0.896-2,2c0,1.104,0.896,2,2,2c1.105,0,2-0.895,2-2C4,12.896,3.105,12,2,12L2,12z"/>
</g>
</svg>
