<?xml version="1.0" encoding="utf-8"?>
<!-- Generator: Adobe Illustrator 17.0.0, SVG Export Plug-In . SVG Version: 6.00 Build 0)  -->
<!DOCTYPE svg PUBLIC "-//W3C//DTD SVG 1.1//EN" "http://www.w3.org/Graphics/SVG/1.1/DTD/svg11.dtd">
<svg version="1.1" id="Layer_1" xmlns="http://www.w3.org/2000/svg" xmlns:xlink="http://www.w3.org/1999/xlink" x="0px" y="0px"
	 width="16px" height="16px" viewBox="0 0 16 16" enable-background="new 0 0 16 16" xml:space="preserve">
<g>
	<g>
		<path fill="#CAD2D2" d="M10,1.436v1.14c3,0.975,4.179,3.261,4.179,5.924c0,3.55-2.753,6.429-6.304,6.429S1.259,12.05,1.259,8.5
			C1.259,5.836,3,3.551,5,2.576v-1.14C3,2.467,0.25,5.236,0.25,8.5c0,4.142,3.483,7.5,7.625,7.5c4.142,0,7.312-3.358,7.312-7.5
			C15.188,5.236,13,2.466,10,1.436L10,1.436z"/>
	</g>
	<g>
		<polygon fill="#CAD2D2" points="8,1 7,1 7,11 8,11 8,1 		"/>
	</g>
</g>
</svg>
