<?xml version="1.0" encoding="utf-8"?>
<!-- Generator: Adobe Illustrator 17.0.0, SVG Export Plug-In . SVG Version: 6.00 Build 0)  -->
<!DOCTYPE svg PUBLIC "-//W3C//DTD SVG 1.1//EN" "http://www.w3.org/Graphics/SVG/1.1/DTD/svg11.dtd">
<svg version="1.1" id="Logo" xmlns="http://www.w3.org/2000/svg" xmlns:xlink="http://www.w3.org/1999/xlink" x="0px" y="0px"
	 width="679.139px" height="505.308px" viewBox="0 0 679.139 505.308" enable-background="new 0 0 679.139 505.308"
	 xml:space="preserve">
<path fill="#F99C1C" d="M635.14,340.848v-15h44v-14h-59v-15h59v-15h-74v-15h74V0L575.575,73.848H427.249L323.14,0v296.651v59.33
	v70.25c-16.462-8.254-35.327-19.338-56.835-34.141c-39.782-27.381-64.627-127.18-99.231-167.948
	C104.479,150.4,43.649,135.013,43.649,135.013c-10.034-7.091-23.917-4.703-31.009,5.331l-8.56,12.114
	c-7.09,10.036-4.703,23.919,5.332,31.01c0,0,56.297,7.786,114.969,76.929c36.257,42.727,64.25,145.558,107.923,174.472
	c127.253,84.253,187.528,69.436,187.528,69.436c1.547,0,3.057-0.159,4.514-0.459H605.24c40.959,0,73.9-32.745,73.9-73.704v-74.163
	v-15.131H635.14z M323.14,296.848h45v15h-45V296.848z M383.14,340.848h-60v-15h60V340.848z M383.14,281.848h-60v-15h60V281.848z
	 M412.416,192.823c-16.384,0-29.665-13.281-29.665-29.665s13.281-29.665,29.665-29.665s29.665,13.281,29.665,29.665
	S428.8,192.823,412.416,192.823z M590.407,192.823c-16.384,0-29.665-13.281-29.665-29.665s13.281-29.665,29.665-29.665
	s29.665,13.281,29.665,29.665S606.791,192.823,590.407,192.823z"/>
</svg>
