<?xml version="1.0" encoding="utf-8"?>
<!-- Generator: Adobe Illustrator 17.0.0, SVG Export Plug-In . SVG Version: 6.00 Build 0)  -->
<!DOCTYPE svg PUBLIC "-//W3C//DTD SVG 1.1//EN" "http://www.w3.org/Graphics/SVG/1.1/DTD/svg11.dtd">
<svg version="1.1" id="Layer_1" xmlns="http://www.w3.org/2000/svg" xmlns:xlink="http://www.w3.org/1999/xlink" x="0px" y="0px"
	 width="24px" height="24px" viewBox="0 0 24 24" enable-background="new 0 0 24 24" xml:space="preserve">
<g>
	<path fill="#9C4343" d="M12,2c5.514,0,10,4.486,10,10s-4.486,10-10,10S2,17.514,2,12S6.486,2,12,2 M12,0C5.373,0,0,5.373,0,12
		s5.373,12,12,12s12-5.373,12-12S18.627,0,12,0L12,0z"/>
</g>
<path fill="#9C4343" d="M12.59,7.8L6,11.8l0,0l6.59,4V7.8z"/>
<path fill="#9C4343" d="M14.787,10.8h-3.295v2h3.295V10.8z"/>
<path fill="#9C4343" d="M15.885,10.8h-2.197v2h2.197V10.8z"/>
<path fill="#9C4343" d="M16.983,10.8h-2.197v2h2.197C16.983,12.8,16.983,10.8,16.983,10.8z"/>
</svg>
