<?xml version="1.0" encoding="utf-8"?>
<!-- Generator: Adobe Illustrator 17.0.0, SVG Export Plug-In . SVG Version: 6.00 Build 0)  -->
<!DOCTYPE svg PUBLIC "-//W3C//DTD SVG 1.1//EN" "http://www.w3.org/Graphics/SVG/1.1/DTD/svg11.dtd">
<svg version="1.1" xmlns="http://www.w3.org/2000/svg" xmlns:xlink="http://www.w3.org/1999/xlink" x="0px" y="0px" width="75px"
	 height="75px" viewBox="0 0 75 75" enable-background="new 0 0 75 75" xml:space="preserve">
<g id="Layer_1">
	<rect fill="#E1E1E1" width="75" height="75"/>
</g>
<g id="Layer_7">
	<path fill-rule="evenodd" clip-rule="evenodd" fill="#999999" d="M31.75,43c-6.361,0-11.637,4.238-13.75,9.938V59h40v-6.165
		C55.931,47.187,50.824,43,44.5,43h-0.606c-0.106-0.118-0.212-0.232-0.328-0.34c2.31-1.404,3.989-5.262,4.508-9.165
		c0.058,0.015,0.115,0.162,0.175,0.162c0.828,0,1.5-1.444,1.5-3.3c0-1.856-0.672-3.33-1.5-3.33c-0.144,0-0.28,0.075-0.412,0.16
		c-0.133-0.63-0.302-1.229-0.494-1.818c0.096-0.275,0.156-0.587,0.156-0.929c0-1.031-0.504-1.865-1.125-1.865
		c-0.077,0-0.153,0.014-0.226,0.039c-0.05-0.091-0.097-0.185-0.149-0.273v-3.871C46,17.438,45.161,17,44.125,17h-0.75
		c-0.59,0-1.11,0.078-1.454,0.503c-0.698-0.845-2.463-1.722-4.546-1.722c-2.12,0-3.905,0.22-4.577,1.22H32.5
		c-0.828,0-1.5,1.018-1.5,1.842v3.063c-0.435,0.155-1,0.559-1,1.045v0.876c0,1.046-0.711,2.181-0.966,3.391
		c-0.131-0.093-0.204-0.159-0.347-0.159c-0.828,0-1.469,1.672-1.469,3.734s0.687,3.734,1.516,3.734c0.099,0,0.203-0.272,0.297-0.317
		c0.666,3.859,2.48,7.596,4.895,8.705c-0.026,0.027-0.046,0.058-0.071,0.086H31.75z"/>
</g>
</svg>
