<?xml version="1.0" encoding="utf-8"?>
<!-- Generator: Adobe Illustrator 17.0.0, SVG Export Plug-In . SVG Version: 6.00 Build 0)  -->
<!DOCTYPE svg PUBLIC "-//W3C//DTD SVG 1.1//EN" "http://www.w3.org/Graphics/SVG/1.1/DTD/svg11.dtd">
<svg version="1.1" id="Layer_1" xmlns="http://www.w3.org/2000/svg" xmlns:xlink="http://www.w3.org/1999/xlink" x="0px" y="0px"
	 width="30px" height="30px" viewBox="0 0 30 30" enable-background="new 0 0 30 30" xml:space="preserve">
<g>
	<path fill-rule="evenodd" clip-rule="evenodd" fill="#A1A1A1" d="M30,18v-6h-4.299c-0.283-1-0.77-2.135-1.429-3.162l2.612-2.574
		l-3.145-2.99l-2.48,2.567C20.22,5.17,19,4.703,18,4.43V0h-6v4.604c-1,0.329-1.948,0.841-2.893,1.509L6.265,3.241L3.275,6.387
		l2.975,2.845C5.711,10.157,5.335,11,5.087,12H0v6h5.147c0.263,1,0.67,1.822,1.203,2.711l-3.109,3.118l3.145,3.005l2.829-2.952
		C10.132,24.513,11,24.97,12,25.286V30h6v-4.54c1-0.257,2.085-0.716,3.077-1.33l2.752,2.754l3.005-3.145l-2.648-2.573
		C24.859,20.16,25.334,19,25.642,18H30z M15.062,22.451c-4.08,0-7.388-3.308-7.388-7.388s3.308-7.388,7.388-7.388
		c4.081,0,7.388,3.308,7.388,7.388S19.143,22.451,15.062,22.451z"/>
	<path fill-rule="evenodd" clip-rule="evenodd" fill="#A1A1A1" d="M15.062,9.152c-3.264,0-5.911,2.646-5.911,5.911
		c0,3.264,2.646,5.911,5.911,5.911c3.264,0,5.911-2.646,5.911-5.911C20.973,11.798,18.327,9.152,15.062,9.152z M15.062,18.018
		c-1.596,0-2.955-1.334-2.955-2.956s1.359-2.955,2.955-2.955s2.955,1.334,2.955,2.955S16.658,18.018,15.062,18.018z"/>
</g>
</svg>
