<?xml version="1.0" encoding="utf-8"?>
<!-- Generator: Adobe Illustrator 17.0.0, SVG Export Plug-In . SVG Version: 6.00 Build 0)  -->
<!DOCTYPE svg PUBLIC "-//W3C//DTD SVG 1.1//EN" "http://www.w3.org/Graphics/SVG/1.1/DTD/svg11.dtd">
<svg version="1.1" id="Layer_1" xmlns="http://www.w3.org/2000/svg" xmlns:xlink="http://www.w3.org/1999/xlink" x="0px" y="0px"
	 width="16px" height="16px" viewBox="0 0 16 16" enable-background="new 0 0 16 16" xml:space="preserve">
<g>
	<path fill-rule="evenodd" clip-rule="evenodd" fill="#9BA9AA" d="M8,15.5c-4.136,0-7.5-3.364-7.5-7.5S3.864,0.5,8,0.5
		s7.5,3.364,7.5,7.5S12.136,15.5,8,15.5z M7.155,10.349c-0.407,0.283-0.679,0.754-0.679,1.274c0,0.842,0.711,1.553,1.553,1.553
		s1.553-0.711,1.553-1.553c0-0.719-0.519-1.343-1.195-1.51l1.435-0.421L9.157,9.094C9.134,9.071,9.089,8.987,9.089,8.919
		c0-0.202,0.248-0.398,0.657-0.696c0.639-0.465,1.514-1.103,1.514-2.437c0-1.528-1.288-2.554-3.205-2.554
		c-1.271,0-2.446,0.523-3.227,1.436L4.545,4.999L6.272,6.94l0.372-0.443C6.884,6.211,7.29,5.87,7.86,5.87
		c0.234,0,0.514,0.042,0.514,0.241c0,0.131-0.292,0.34-0.549,0.524C7.256,7.043,6.477,7.602,6.477,8.737
		c0,0.568,0.193,1.081,0.56,1.481L7.155,10.349z"/>
	<path fill="#9BA9AA" d="M8,1c3.86,0,7,3.14,7,7c0,3.86-3.14,7-7,7s-7-3.14-7-7C1,4.14,4.14,1,8,1 M6.217,7.63
		c-0.147,0.311-0.24,0.675-0.24,1.107c0,0.58,0.167,1.114,0.485,1.563c-0.302,0.358-0.485,0.82-0.485,1.323
		c0,1.132,0.921,2.053,2.053,2.053c1.132,0,2.053-0.921,2.053-2.053c0-0.511-0.188-0.98-0.498-1.339l1.239-0.364L9.686,8.897
		c0.103-0.087,0.247-0.192,0.355-0.27c0.643-0.469,1.719-1.253,1.719-2.841c0-1.798-1.523-3.054-3.704-3.054
		c-1.417,0-2.732,0.587-3.607,1.611L3.881,5.006l0.58,0.652l1.053,1.183L6.217,7.63 M8,0C3.582,0,0,3.582,0,8c0,4.418,3.582,8,8,8
		s8-3.582,8-8C16,3.582,12.418,0,8,0L8,0z M6.261,6.176L5.208,4.993c0.689-0.806,1.729-1.261,2.847-1.261
		c1.677,0,2.704,0.845,2.704,2.054c0,1.898-2.171,2.041-2.171,3.133c0,0.208,0.104,0.429,0.234,0.546L7.405,9.881
		C7.132,9.582,6.976,9.192,6.976,8.737c0-1.547,1.898-1.729,1.898-2.626c0-0.403-0.299-0.741-1.014-0.741
		C7.21,5.37,6.664,5.695,6.261,6.176L6.261,6.176z M8.029,12.676c-0.572,0-1.053-0.481-1.053-1.053c0-0.572,0.481-1.053,1.053-1.053
		c0.572,0,1.053,0.481,1.053,1.053C9.083,12.195,8.601,12.676,8.029,12.676L8.029,12.676z"/>
</g>
</svg>
