<?xml version="1.0" encoding="utf-8"?>
<!-- Generator: Adobe Illustrator 17.0.0, SVG Export Plug-In . SVG Version: 6.00 Build 0)  -->
<!DOCTYPE svg PUBLIC "-//W3C//DTD SVG 1.1//EN" "http://www.w3.org/Graphics/SVG/1.1/DTD/svg11.dtd">
<svg version="1.1" id="Layer_1" xmlns="http://www.w3.org/2000/svg" xmlns:xlink="http://www.w3.org/1999/xlink" x="0px" y="0px"
	 width="12px" height="13px" viewBox="0 0 12 13" enable-background="new 0 0 12 13" xml:space="preserve">
<g>
	<path fill="#95A5A5" d="M6.786,1.48c1.017,0,1.981,0.407,2.713,1.145c1.519,1.531,1.519,4.217,0,5.749
		C8.767,9.113,7.803,9.52,6.786,9.52S4.805,9.113,4.073,8.374c-1.519-1.531-1.519-4.217,0-5.748C4.805,1.887,5.769,1.48,6.786,1.48
		 M6.786,0.48c-1.235,0-2.47,0.48-3.423,1.441c-1.906,1.922-1.906,5.236,0,7.157c0.953,0.961,2.188,1.441,3.423,1.441
		s2.47-0.48,3.423-1.441c1.906-1.921,1.906-5.235,0-7.157C9.257,0.961,8.021,0.48,6.786,0.48L6.786,0.48z"/>
</g>
<g>
	<polygon fill="#95A5A5" points="3.37,7.876 0.115,11.236 1.2,12.355 4.455,8.996 3.37,7.876 	"/>
</g>
</svg>
