<?xml version="1.0" encoding="utf-8"?>
<!-- Generator: Adobe Illustrator 17.0.0, SVG Export Plug-In . SVG Version: 6.00 Build 0)  -->
<!DOCTYPE svg PUBLIC "-//W3C//DTD SVG 1.1//EN" "http://www.w3.org/Graphics/SVG/1.1/DTD/svg11.dtd">
<svg version="1.1" id="Layer_1" xmlns="http://www.w3.org/2000/svg" xmlns:xlink="http://www.w3.org/1999/xlink" x="0px" y="0px"
	 width="16px" height="16px" viewBox="0 0 16 16" enable-background="new 0 0 16 16" xml:space="preserve">
<g>
	<path fill="#CAD2D2" d="M6,4L6,4v1L5,5V4H6 M6,8L6,8v1H5V8H6 M6,12L6,12v1H5v-1H6 M14,1H4C2.895,1,2,1.895,2,3C0.896,3,0,3.895,0,5
		v9c0,1.105,0.896,2,2,2h2h10c1.105,0,2-0.896,2-2V5V3C16,1.895,15.105,1,14,1L14,1z M5,15c-1.105,0-2-0.895-2-2V4
		c0-1.105,0.895-2,2-2h8c1.105,0,2,0.895,2,2v9c0,1.105-0.895,2-2,2H5L5,15z M2.18,14.82C1.485,14.507,1,13.811,1,13V6
		c0-0.738,0.405-1.376,1-1.722V14C2,14.293,2.066,14.569,2.18,14.82L2.18,14.82z M13,3H8v1h5V3L13,3z M6,3H5C4.448,3,4,3.448,4,4v1
		c0,0.552,0.448,1,1,1h1c0.552,0,1-0.448,1-1V4C7,3.448,6.552,3,6,3L6,3z M13,5H8v1h5V5L13,5z M13,7H8v1h5V7L13,7z M6,7H5
		C4.448,7,4,7.448,4,8v1c0,0.552,0.448,1,1,1h1c0.552,0,1-0.448,1-1V8C7,7.448,6.552,7,6,7L6,7z M13,9H8v1h5V9L13,9z M13,11H8v1h5
		V11L13,11z M6,11H5c-0.552,0-1,0.448-1,1v1c0,0.552,0.448,1,1,1h1c0.552,0,1-0.448,1-1v-1C7,11.448,6.552,11,6,11L6,11z M13,13H8v1
		h5V13L13,13z"/>
</g>
</svg>
