<?xml version="1.0" encoding="utf-8"?>
<!-- Generator: Adobe Illustrator 17.0.0, SVG Export Plug-In . SVG Version: 6.00 Build 0)  -->
<!DOCTYPE svg PUBLIC "-//W3C//DTD SVG 1.1//EN" "http://www.w3.org/Graphics/SVG/1.1/DTD/svg11.dtd">
<svg version="1.1" id="Layer_1" xmlns="http://www.w3.org/2000/svg" xmlns:xlink="http://www.w3.org/1999/xlink" x="0px" y="0px"
	 width="16px" height="16px" viewBox="0 0 16 16" enable-background="new 0 0 16 16" xml:space="preserve">
<g>
	<path fill="#CAD2D2" d="M8,1c2.654,0,4,1.682,4,5c0,3-2.669,6.75-4.004,8.437C6.442,12.473,4,8.796,4,6C4,2.682,5.346,1,8,1 M8,7
		c1.103,0,2-0.897,2-2c0-1.103-0.897-2-2-2S6,3.897,6,5C6,6.103,6.897,7,8,7 M8,0C5.239,0,3,1.582,3,6s5,10,5,10s5-5.582,5-10
		S10.761,0,8,0L8,0z M8,6C7.448,6,7,5.552,7,5c0-0.552,0.448-1,1-1s1,0.448,1,1C9,5.552,8.552,6,8,6L8,6z"/>
</g>
</svg>
