<?xml version="1.0" encoding="utf-8"?>
<!-- Generator: Adobe Illustrator 17.0.0, SVG Export Plug-In . SVG Version: 6.00 Build 0)  -->
<!DOCTYPE svg PUBLIC "-//W3C//DTD SVG 1.1//EN" "http://www.w3.org/Graphics/SVG/1.1/DTD/svg11.dtd">
<svg version="1.1" id="Layer_1" xmlns="http://www.w3.org/2000/svg" xmlns:xlink="http://www.w3.org/1999/xlink" x="0px" y="0px"
	 width="16px" height="16px" viewBox="0 0 16 16" enable-background="new 0 0 16 16" xml:space="preserve">
<g>
	<path fill="#FFFFFF" d="M3,1v2H1V1H3 M3,7v2H1V7H3 M3,13v2H1v-2H3 M15,14L15,14l-8,0v0H15 M4,0H0v4h4V0L4,0z M16,1H6v2h10V1L16,1z
		 M4,6H0v4h4V6L4,6z M16,7H6v2h10V7L16,7z M4,12H0v4h4V12L4,12z M16,13H6v2h10V13L16,13z"/>
</g>
</svg>
