<?xml version="1.0" encoding="utf-8"?>
<!-- Generator: Adobe Illustrator 17.0.0, SVG Export Plug-In . SVG Version: 6.00 Build 0)  -->
<!DOCTYPE svg PUBLIC "-//W3C//DTD SVG 1.1//EN" "http://www.w3.org/Graphics/SVG/1.1/DTD/svg11.dtd">
<svg version="1.1" id="Layer_1" xmlns="http://www.w3.org/2000/svg" xmlns:xlink="http://www.w3.org/1999/xlink" x="0px" y="0px"
	 width="16px" height="16px" viewBox="0 0 16 16" enable-background="new 0 0 16 16" xml:space="preserve">
<path fill-rule="evenodd" clip-rule="evenodd" fill="#CBD3D2" d="M8,16c-4.418,0-8-3.582-8-8s3.582-8,8-8s8,3.582,8,8
	S12.418,16,8,16z M8,1C4.134,1,1,4.134,1,8s3.134,7,7,7c3.866,0,7-3.134,7-7S11.866,1,8,1z M10.828,12.243L8,9.414l-2.828,2.828
	l-1.414-1.414L6.586,8L3.757,5.172l1.414-1.414L8,6.586l2.828-2.828l1.414,1.414L9.414,8l2.828,2.828L10.828,12.243z"/>
</svg>
