<?xml version="1.0" encoding="utf-8"?>
<!-- Generator: Adobe Illustrator 17.0.0, SVG Export Plug-In . SVG Version: 6.00 Build 0)  -->
<!DOCTYPE svg PUBLIC "-//W3C//DTD SVG 1.1//EN" "http://www.w3.org/Graphics/SVG/1.1/DTD/svg11.dtd">
<svg version="1.1" id="Layer_1" xmlns="http://www.w3.org/2000/svg" xmlns:xlink="http://www.w3.org/1999/xlink" x="0px" y="0px"
	 width="16px" height="16px" viewBox="0 0 16 16" enable-background="new 0 0 16 16" xml:space="preserve">
<g>
	<path fill="#9BA9AA" d="M8,0H7C5.619,0,4.5,1.119,4.5,2.5v6C4.5,9.881,5.619,11,7,11h1c1.381,0,2.5-1.119,2.5-2.5v-6
		C10.5,1.119,9.381,0,8,0L8,0z M7,3C6.724,3,6.5,2.776,6.5,2.5S6.724,2,7,2s0.5,0.224,0.5,0.5S7.276,3,7,3L7,3z M8,4
		C7.724,4,7.5,3.776,7.5,3.5S7.724,3,8,3c0.276,0,0.5,0.224,0.5,0.5S8.276,4,8,4L8,4z M7,5C6.724,5,6.5,4.776,6.5,4.5S6.724,4,7,4
		s0.5,0.224,0.5,0.5S7.276,5,7,5L7,5z M8,6C7.724,6,7.5,5.776,7.5,5.5S7.724,5,8,5c0.276,0,0.5,0.224,0.5,0.5S8.276,6,8,6L8,6z M7,7
		C6.724,7,6.5,6.776,6.5,6.5S6.724,6,7,6s0.5,0.224,0.5,0.5S7.276,7,7,7L7,7z M8,8C7.724,8,7.5,7.776,7.5,7.5S7.724,7,8,7
		c0.276,0,0.5,0.224,0.5,0.5S8.276,8,8,8L8,8z M7,9C6.724,9,6.5,8.776,6.5,8.5S6.724,8,7,8s0.5,0.224,0.5,0.5S7.276,9,7,9L7,9z
		 M12,2c-0.276,0-0.5,0.448-0.5,1v3.5c0,3.038-0.462,5.5-3.5,5.5H7c-3.038,0-3.5-2.462-3.5-5.5V3c0-0.552-0.224-1-0.5-1
		S2.5,2.448,2.5,3v5.5c0,2.314,1.753,4.198,4,4.45v1.173c-1.163,0.275-2,1.008-2,1.877h6c0-0.87-0.837-1.602-2-1.877V12.95
		c2.247-0.252,4-2.136,4-4.45V3C12.5,2.448,12.276,2,12,2L12,2z"/>
</g>
</svg>
