<?xml version="1.0" encoding="utf-8"?>
<!-- Generator: Adobe Illustrator 17.0.0, SVG Export Plug-In . SVG Version: 6.00 Build 0)  -->
<!DOCTYPE svg PUBLIC "-//W3C//DTD SVG 1.1//EN" "http://www.w3.org/Graphics/SVG/1.1/DTD/svg11.dtd">
<svg version="1.1" id="Layer_1" xmlns="http://www.w3.org/2000/svg" xmlns:xlink="http://www.w3.org/1999/xlink" x="0px" y="0px"
	 width="16px" height="16px" viewBox="0 0 16 16" enable-background="new 0 0 16 16" xml:space="preserve">
<g>
	<path fill="#CAD2D2" d="M2.356,1.995L2.356,1.995c1.514,0,4.327,1.297,7.202,4.194c0.502,0.506,0.978,1.037,1.421,1.586
		L7.253,11.53c-0.794-0.485-1.539-0.929-2.189-1.25C1.94,8.734,1.228,5.792,1.084,4.927C0.86,3.583,1.116,2.611,1.448,2.276
		C1.633,2.09,1.938,1.995,2.356,1.995 M13.066,11.042c0.801,1.737,0.793,2.922,0.376,3.343c-0.052,0.052-0.204,0.058-0.267,0.058
		c-0.654,0-1.712-0.481-2.562-0.929L13.066,11.042 M2.356,0.995c-0.673,0-1.23,0.185-1.618,0.577
		c-1.56,1.572-0.819,7.278,3.883,9.605c0.789,0.39,1.762,0.992,2.785,1.62l4.901-4.939c-0.588-0.796-1.268-1.596-2.038-2.373
		C7.486,2.681,4.387,0.995,2.356,0.995L2.356,0.995z M13.314,9.372l-4.338,4.372c1.577,0.923,3.125,1.699,4.199,1.699
		c0.399,0,0.732-0.107,0.976-0.354C15.178,14.054,14.768,11.833,13.314,9.372L13.314,9.372z"/>
</g>
</svg>
