<?xml version="1.0" encoding="utf-8"?>
<!-- Generator: Adobe Illustrator 17.0.0, SVG Export Plug-In . SVG Version: 6.00 Build 0)  -->
<!DOCTYPE svg PUBLIC "-//W3C//DTD SVG 1.1//EN" "http://www.w3.org/Graphics/SVG/1.1/DTD/svg11.dtd">
<svg version="1.1" id="Layer_1" xmlns="http://www.w3.org/2000/svg" xmlns:xlink="http://www.w3.org/1999/xlink" x="0px" y="0px"
	 width="16px" height="16px" viewBox="0 0 16 16" enable-background="new 0 0 16 16" xml:space="preserve">
<path fill-rule="evenodd" clip-rule="evenodd" fill="#9BA9AA" d="M8,16c-4.418,0-8-3.582-8-8s3.582-8,8-8s8,3.582,8,8
	S12.418,16,8,16z M8.589,8.919c0,0.208,0.104,0.429,0.234,0.546L7.405,9.881C7.132,9.582,6.976,9.192,6.976,8.737
	c0-1.547,1.898-1.729,1.898-2.626c0-0.403-0.299-0.741-1.014-0.741c-0.65,0-1.196,0.325-1.599,0.806L5.208,4.993
	c0.689-0.806,1.729-1.261,2.847-1.261c1.677,0,2.704,0.845,2.704,2.054C10.759,7.684,8.589,7.827,8.589,8.919z M8.029,10.57
	c0.572,0,1.053,0.481,1.053,1.053c0,0.572-0.481,1.053-1.053,1.053c-0.572,0-1.053-0.481-1.053-1.053
	C6.976,11.051,7.457,10.57,8.029,10.57z"/>
</svg>
