<?xml version="1.0" encoding="utf-8"?>
<!-- Generator: Adobe Illustrator 17.0.0, SVG Export Plug-In . SVG Version: 6.00 Build 0)  -->
<!DOCTYPE svg PUBLIC "-//W3C//DTD SVG 1.1//EN" "http://www.w3.org/Graphics/SVG/1.1/DTD/svg11.dtd">
<svg version="1.1" id="Layer_1" xmlns="http://www.w3.org/2000/svg" xmlns:xlink="http://www.w3.org/1999/xlink" x="0px" y="0px"
	 width="16px" height="16px" viewBox="0 0 16 16" enable-background="new 0 0 16 16" xml:space="preserve">
<g id="Alphabet">
	<g>
		<path fill="#CAD2D2" d="M8.167,3L11.5,13H9l-0.833-2.5H4.833L4,13H1.5L4.833,3H8.167 M4.833,8.833h3.333L6.5,4.667L4.833,8.833
			 M8.887,2H8.167H4.833H4.113L3.885,2.684l-3.333,10L0.113,14H1.5H4h0.721l0.228-0.684L5.554,11.5h1.892l0.605,1.816L8.279,14H9
			h2.5h1.387l-0.439-1.316l-3.333-10L8.887,2L8.887,2z M6.31,7.833L6.5,7.359l0.19,0.474H6.31L6.31,7.833z"/>
	</g>
	<g>
		<polygon fill="#CAD2D2" points="15.5,5 11.5,5 11.5,6 13.5,6 11.5,9 11.5,10 15.5,10 15.5,9 13.5,9 15.5,6 15.5,5 		"/>
	</g>
</g>
</svg>
