<?xml version="1.0" encoding="utf-8"?>
<!-- Generator: Adobe Illustrator 17.0.0, SVG Export Plug-In . SVG Version: 6.00 Build 0)  -->
<!DOCTYPE svg PUBLIC "-//W3C//DTD SVG 1.1//EN" "http://www.w3.org/Graphics/SVG/1.1/DTD/svg11.dtd">
<svg version="1.1" id="Layer_1" xmlns="http://www.w3.org/2000/svg" xmlns:xlink="http://www.w3.org/1999/xlink" x="0px" y="0px"
	 width="16px" height="16px" viewBox="0 0 16 16" enable-background="new 0 0 16 16" xml:space="preserve">
<path fill-rule="evenodd" clip-rule="evenodd" fill="#FFFFFF" d="M8,1C4.134,1,1,4.134,1,8c0,2.866,1.724,5.329,4.19,6.411
	c-0.02-0.489-0.003-1.075,0.122-1.607C5.446,12.236,6.213,8.99,6.213,8.99S5.989,8.543,5.989,7.882c0-1.037,0.601-1.812,1.35-1.812
	c0.637,0,0.944,0.478,0.944,1.051c0,0.64-0.408,1.597-0.618,2.484c-0.175,0.743,0.372,1.348,1.105,1.348
	c1.326,0,2.22-1.703,2.22-3.722c0-1.534-1.033-2.682-2.913-2.682c-2.123,0-3.446,1.583-3.446,3.352c0,0.61,0.18,1.04,0.462,1.373
	c0.129,0.153,0.148,0.215,0.101,0.39c-0.033,0.129-0.111,0.439-0.143,0.562c-0.047,0.177-0.19,0.241-0.351,0.175
	c-0.978-0.399-1.434-1.47-1.434-2.674c0-1.989,1.677-4.373,5.003-4.373c2.673,0,4.431,1.934,4.431,4.01
	c0,2.746-1.527,4.797-3.777,4.797c-0.756,0-1.467-0.409-1.71-0.873c0,0-0.406,1.613-0.492,1.924c-0.148,0.54-0.439,1.079-0.705,1.5
	C6.646,14.899,7.311,15,8,15c3.866,0,7-3.134,7-7C15,4.134,11.866,1,8,1z"/>
</svg>
