<?xml version="1.0" encoding="utf-8"?>
<!-- Generator: Adobe Illustrator 17.0.0, SVG Export Plug-In . SVG Version: 6.00 Build 0)  -->
<!DOCTYPE svg PUBLIC "-//W3C//DTD SVG 1.1//EN" "http://www.w3.org/Graphics/SVG/1.1/DTD/svg11.dtd">
<svg version="1.1" id="Layer_1" xmlns="http://www.w3.org/2000/svg" xmlns:xlink="http://www.w3.org/1999/xlink" x="0px" y="0px"
	 width="16px" height="16px" viewBox="0 0 16 16" enable-background="new 0 0 16 16" xml:space="preserve">
<g>
	<path fill="#9BA9AA" d="M9.207,11.5H2c-0.827,0-1.5-0.673-1.5-1.5V4c0-0.827,0.673-1.5,1.5-1.5h11c0.827,0,1.5,0.673,1.5,1.5v6
		c0,0.827-0.673,1.5-1.5,1.5h-1.5v2.293L9.207,11.5z"/>
	<path fill="#9BA9AA" d="M13,3c0.551,0,1,0.449,1,1v6c0,0.551-0.449,1-1,1h-1h-1v1v0.586l-1.293-1.293L9.414,11H9H2
		c-0.551,0-1-0.449-1-1V4c0-0.551,0.449-1,1-1H13 M13,2H2C0.896,2,0,2.895,0,4v6c0,1.105,0.896,2,2,2h7l3,3v-3h1
		c1.105,0,2-0.895,2-2V4C15,2.895,14.105,2,13,2L13,2z"/>
</g>
</svg>
