<?xml version="1.0" encoding="utf-8"?>
<!-- Generator: Adobe Illustrator 17.0.0, SVG Export Plug-In . SVG Version: 6.00 Build 0)  -->
<!DOCTYPE svg PUBLIC "-//W3C//DTD SVG 1.1//EN" "http://www.w3.org/Graphics/SVG/1.1/DTD/svg11.dtd">
<svg version="1.1" id="Layer_1" xmlns="http://www.w3.org/2000/svg" xmlns:xlink="http://www.w3.org/1999/xlink" x="0px" y="0px"
	 width="16px" height="16px" viewBox="0 0 16 16" enable-background="new 0 0 16 16" xml:space="preserve">
<g>
	<path fill="#CAD2D2" d="M11,3.831l3.586,3.586L11,11.003v-0.586c0-0.498-0.204-2.122-2.828-2.122c-1.433,0-3.361,0.466-5.024,0.969
		C4.925,7.457,7.487,5.417,10,5.417h1v-1V3.831 M10,1.417v3c-5.071,0-10,7-10,7s5.286-2.122,8.172-2.122
		C9.255,9.295,10,9.594,10,10.417c0,0,0,0,0,0v3l6-6L10,1.417L10,1.417z"/>
</g>
</svg>
