<?xml version="1.0" encoding="utf-8"?>
<!-- Generator: Adobe Illustrator 17.0.0, SVG Export Plug-In . SVG Version: 6.00 Build 0)  -->
<!DOCTYPE svg PUBLIC "-//W3C//DTD SVG 1.1//EN" "http://www.w3.org/Graphics/SVG/1.1/DTD/svg11.dtd">
<svg version="1.1" id="Logo" xmlns="http://www.w3.org/2000/svg" xmlns:xlink="http://www.w3.org/1999/xlink" x="0px" y="0px"
	 width="2331.074px" height="505.308px" viewBox="218.861 1027.152 2331.074 505.308"
	 enable-background="new 218.861 1027.152 2331.074 505.308" xml:space="preserve">
<path fill="#F99C1C" d="M854,1368v-15h44v-14h-59v-15h59v-15h-74v-15h74v-266.848L794.435,1101H646.109L542,1027.152v296.651v59.33
	v70.25c-16.462-8.254-35.327-19.338-56.835-34.141c-39.782-27.381-64.627-127.18-99.231-167.948
	c-62.595-73.742-123.425-89.129-123.425-89.129c-10.034-7.091-23.917-4.703-31.009,5.331l-8.56,12.114
	c-7.09,10.036-4.703,23.919,5.332,31.01c0,0,56.297,7.786,114.969,76.929c36.257,42.727,64.25,145.558,107.923,174.472
	c127.253,84.253,187.528,69.436,187.528,69.436c1.547,0,3.057-0.159,4.514-0.459H824.1c40.959,0,73.9-32.745,73.9-73.704v-74.163
	V1368H854z M542,1324h45v15h-45V1324z M602,1368h-60v-15h60V1368z M602,1309h-60v-15h60V1309z M631.276,1219.975
	c-16.384,0-29.665-13.281-29.665-29.665s13.281-29.665,29.665-29.665s29.665,13.281,29.665,29.665S647.66,1219.975,631.276,1219.975
	z M809.267,1219.975c-16.384,0-29.665-13.281-29.665-29.665s13.281-29.665,29.665-29.665s29.665,13.281,29.665,29.665
	S825.651,1219.975,809.267,1219.975z"/>
<path fill="#F99C1C" d="M1114.644,1210.83l-1.068-8.542c-1.602-8.008-9.61-14.416-17.618-12.814
	c-8.543,1.602-14.95,9.61-13.348,18.152c5.872,35.239,9.61,65.671,12.28,91.833l1.602,14.416c0.534,8.542,1.068,14.948,1.602,19.22
	c-0.534,10.144-0.534,19.754-0.534,29.364c-0.534,25.628-1.068,46.984-1.068,63.535v21.356c0.534,2.67,0.534,5.34,0.534,6.942
	c0.534,1.6,0.534,2.668,0.534,3.202c0,2.67,1.6,5.874,4.27,9.078c8.544,8.008,24.026,6.94,27.764-7.476
	c0.534-2.67,1.068-5.872,0.534-9.61v-4.806c-0.534-1.6-0.534-2.668-0.534-3.202v-1.602c1.602-23.492,2.136-48.585,1.602-75.281
	c-0.534-9.076-1.068-19.754-2.136-32.034c1.602-40.577,2.67-64.069,3.738-70.475c2.134-15.484,4.804-26.162,7.474-32.568
	c1.602-4.806,3.738-8.01,5.34-9.611c0.534-0.532,1.6-1.067,3.202-0.532c0,0.532,0.534,1.066,1.068,1.6l1.602,2.136
	c1.068,2.136,2.67,6.942,4.272,11.746c6.94,22.958,10.678,62.467,11.212,107.849l-1.068,20.288
	c-1.602,27.23-2.136,49.12-2.67,65.671c0,10.144,0,18.152,0.534,24.026c0.534,3.736,0.534,6.406,1.068,9.076
	c1.602,8.008,5.338,13.882,11.746,16.018c7.474,2.668,13.348,0.534,18.152-5.874c1.602-2.67,2.67-5.338,3.204-8.542v-33.102
	c0.534-29.899,0.534-48.586,0.534-56.595v-18.152c0-3.738,0-8.008-0.534-11.746c3.204-45.382,5.874-73.679,8.008-85.425
	c1.602-9.61,4.806-18.686,10.146-27.762c2.668-4.272,4.804-6.942,6.406-8.01c0.534,0.534,0.534,1.602,1.068,2.67
	c1.602,5.34,3.204,12.814,4.806,22.958c4.804,34.704,4.804,108.383,4.804,129.739c0,14.416,0,30.433-0.534,46.984
	c-0.534,16.552-0.534,26.696-0.534,29.365c0,8.542,6.942,15.482,15.484,15.482s15.484-6.94,15.484-15.482
	c0-2.67,0-12.814,0.534-29.365c0.534-16.55,0.534-32.568,0.534-47.518c0-29.898-0.534-94.501-5.34-133.477
	c-3.738-23.492-8.008-43.78-22.424-50.186c-6.408-2.136-11.746-3.204-16.552-3.204c-9.076,0.534-19.22,9.076-24.026,14.95
	c-4.804,5.872-8.542,12.28-11.212,18.152c-6.406-19.754-16.016-30.966-28.296-34.17
	C1133.332,1183.602,1121.052,1198.016,1114.644,1210.83z"/>
<path fill="#F99C1C" d="M1359.441,1163.312l-5.34-1.602c-14.416,1.602-24.026-9.076-23.492-22.424c-0.534-2.668,0-5.338,1.602-8.008
	c0.534-2.67,1.602-4.806,3.204-6.94c10.144-18.688,26.16-24.56,38.44-20.29c12.814,4.272,20.29,17.62,18.154,32.569
	C1389.873,1151.032,1378.661,1165.982,1359.441,1163.312z M1374.389,1206.025c1.602,60.331,2.136,146.823,2.136,259.478
	c0,8.542-6.94,15.482-15.484,15.482c-8.542,0-15.482-6.94-15.482-15.482c0-112.655-0.534-199.146-2.136-258.41
	c0-8.544,6.406-16.018,14.95-16.018C1366.915,1191.076,1374.389,1197.482,1374.389,1206.025z"/>
<path fill="#F99C1C" d="M1470.626,1210.83l-1.068-8.542c-1.602-8.008-9.61-14.416-17.618-12.814
	c-8.544,1.602-14.95,9.61-13.348,18.152c5.872,35.239,9.61,65.671,12.28,91.833l1.602,14.416c0.534,8.542,1.068,14.948,1.602,19.22
	c-0.534,10.144-0.534,19.754-0.534,29.364c-0.534,25.628-1.068,46.984-1.068,63.535v21.356c0.534,2.67,0.534,5.34,0.534,6.942
	c0.534,1.6,0.534,2.668,0.534,3.202c0,2.67,1.6,5.874,4.27,9.078c8.544,8.008,24.026,6.94,27.764-7.476
	c0.534-2.67,1.068-5.872,0.534-9.61v-4.806c-0.534-1.6-0.534-2.668-0.534-3.202v-1.602c1.602-23.492,2.136-48.585,1.602-75.281
	c-0.534-9.076-1.068-19.754-2.136-32.034c1.602-40.577,2.67-64.069,3.738-70.475c2.134-15.484,4.804-26.162,7.474-32.568
	c1.602-4.806,3.738-8.01,5.34-9.611c0.534-0.532,1.6-1.067,3.202-0.532c0,0.532,0.534,1.066,1.068,1.6l1.602,2.136
	c1.068,2.136,2.67,6.942,4.272,11.746c6.94,22.958,10.678,62.467,11.212,107.849l-1.068,20.288
	c-1.602,27.23-2.136,49.12-2.67,65.671c0,10.144,0,18.152,0.534,24.026c0.534,3.736,0.534,6.406,1.068,9.076
	c1.602,8.008,5.338,13.882,11.746,16.018c7.474,2.668,13.348,0.534,18.152-5.874c1.602-2.67,2.67-5.338,3.204-8.542v-33.102
	c0.534-29.899,0.534-48.586,0.534-56.595v-18.152c0-3.738,0-8.008-0.534-11.746c3.204-45.382,5.874-73.679,8.008-85.425
	c1.602-9.61,4.806-18.686,10.145-27.762c2.668-4.272,4.804-6.942,6.406-8.01c0.534,0.534,0.534,1.602,1.068,2.67
	c1.602,5.34,3.204,12.814,4.806,22.958c4.804,34.704,4.804,108.383,4.804,129.739c0,14.416,0,30.433-0.534,46.984
	c-0.534,16.552-0.534,26.696-0.534,29.365c0,8.542,6.942,15.482,15.484,15.482s15.484-6.94,15.484-15.482
	c0-2.67,0-12.814,0.534-29.365c0.534-16.55,0.534-32.568,0.534-47.518c0-29.898-0.534-94.501-5.34-133.477
	c-3.738-23.492-8.008-43.78-22.424-50.186c-6.408-2.136-11.746-3.204-16.552-3.204c-9.076,0.534-19.22,9.076-24.026,14.95
	c-4.804,5.872-8.542,12.28-11.212,18.152c-6.406-19.754-16.016-30.966-28.296-34.17
	C1489.313,1183.602,1477.033,1198.016,1470.626,1210.83z"/>
<path fill="#F99C1C" d="M1715.422,1163.312l-5.34-1.602c-14.416,1.602-24.026-9.076-23.492-22.424c-0.534-2.668,0-5.338,1.602-8.008
	c0.534-2.67,1.602-4.806,3.204-6.94c10.144-18.688,26.16-24.56,38.44-20.29c12.814,4.272,20.289,17.62,18.154,32.569
	C1745.854,1151.032,1734.642,1165.982,1715.422,1163.312z M1730.37,1206.025c1.602,60.331,2.136,146.823,2.136,259.478
	c0,8.542-6.94,15.482-15.484,15.482c-8.542,0-15.482-6.94-15.482-15.482c0-112.655-0.534-199.146-2.136-258.41
	c0-8.544,6.406-16.018,14.95-16.018C1722.896,1191.076,1730.37,1197.482,1730.37,1206.025z"/>
<path fill="#F99C1C" d="M1826.607,1210.83l-1.068-8.542c-1.602-8.008-9.61-14.416-17.618-12.814
	c-8.544,1.602-14.95,9.61-13.348,18.152c5.872,35.239,9.61,65.671,12.28,91.833l1.602,14.416c0.534,8.542,1.068,14.948,1.602,19.22
	c-0.534,10.144-0.534,19.754-0.534,29.364c-0.534,25.628-1.068,46.984-1.068,63.535v21.356c0.534,2.67,0.534,5.34,0.534,6.942
	c0.534,1.6,0.534,2.668,0.534,3.202c0,2.67,1.6,5.874,4.27,9.078c8.544,8.008,24.026,6.94,27.764-7.476
	c0.534-2.67,1.068-5.872,0.534-9.61v-4.806c-0.534-1.6-0.534-2.668-0.534-3.202v-1.602c1.602-23.492,2.136-48.585,1.602-75.281
	c-0.534-9.076-1.068-19.754-2.136-32.034c1.602-40.577,2.67-64.069,3.738-70.475c2.134-15.484,4.804-26.162,7.474-32.568
	c1.602-4.806,3.738-8.01,5.34-9.611c0.534-0.532,1.6-1.067,3.202-0.532c0,0.532,0.534,1.066,1.068,1.6l1.602,2.136
	c1.068,2.136,2.67,6.942,4.272,11.746c6.94,22.958,10.678,62.467,11.212,107.849l-1.068,20.288
	c-1.602,27.23-2.136,49.12-2.67,65.671c0,10.144,0,18.152,0.534,24.026c0.534,3.736,0.534,6.406,1.068,9.076
	c1.602,8.008,5.338,13.882,11.746,16.018c7.474,2.668,13.348,0.534,18.152-5.874c1.602-2.67,2.67-5.338,3.204-8.542v-33.102
	c0.534-29.899,0.534-48.586,0.534-56.595v-18.152c0-3.738,0-8.008-0.534-11.746c3.204-45.382,5.874-73.679,8.008-85.425
	c1.602-9.61,4.806-18.686,10.146-27.762c2.668-4.272,4.804-6.942,6.406-8.01c0.534,0.534,0.534,1.602,1.068,2.67
	c1.602,5.34,3.204,12.814,4.806,22.958c4.804,34.704,4.804,108.383,4.804,129.739c0,14.416,0,30.433-0.534,46.984
	c-0.534,16.552-0.534,26.696-0.534,29.365c0,8.542,6.942,15.482,15.484,15.482s15.484-6.94,15.484-15.482
	c0-2.67,0-12.814,0.534-29.365c0.534-16.55,0.534-32.568,0.534-47.518c0-29.898-0.534-94.501-5.34-133.477
	c-3.738-23.492-8.008-43.78-22.424-50.186c-6.408-2.136-11.746-3.204-16.552-3.204c-9.076,0.534-19.22,9.076-24.026,14.95
	c-4.804,5.872-8.542,12.28-11.212,18.152c-6.406-19.754-16.016-30.966-28.296-34.17
	C1845.294,1183.602,1833.015,1198.016,1826.607,1210.83z"/>
<path fill="#F99C1C" d="M2071.404,1163.312l-5.34-1.602c-14.416,1.602-24.026-9.076-23.492-22.424c-0.534-2.668,0-5.338,1.602-8.008
	c0.534-2.67,1.602-4.806,3.204-6.94c10.144-18.688,26.16-24.56,38.44-20.29c12.814,4.272,20.29,17.62,18.154,32.569
	C2101.835,1151.032,2090.624,1165.982,2071.404,1163.312z M2086.352,1206.025c1.602,60.331,2.136,146.823,2.136,259.478
	c0,8.542-6.94,15.482-15.484,15.482c-8.542,0-15.482-6.94-15.482-15.482c0-112.655-0.534-199.146-2.136-258.41
	c0-8.544,6.406-16.018,14.95-16.018C2078.878,1191.076,2086.352,1197.482,2086.352,1206.025z"/>
<path fill="#F99C1C" d="M2201.81,1420.121c9.61,5.338,16.016,11.746,19.22,19.754c4.272,8.542,1.602,21.89-7.474,28.296
	c-12.28,6.408-22.958,2.67-29.899-5.872c-5.872-7.474-9.076-18.154-9.61-32.568c0-8.544,6.406-16.018,14.95-16.018
	C2194.334,1413.714,2198.606,1415.85,2201.81,1420.121z"/>
<path fill="#F99C1C" d="M2340.758,1267.423c0-2.668,0-5.872,0.534-9.61c0.534-3.736,0.534-5.872,0.534-6.94
	c0-1.602,0-7.476-1.068-10.678c-0.534-1.602-1.602-3.738-2.136-6.942c-5.872-14.948-20.822-19.22-27.229-8.542
	c-12.814,21.89-11.212,54.992-10.678,82.755c0.534,14.416,0.534,24.56,0.534,29.365c-1.602,27.228-1.602,63.534,4.272,84.89
	c2.136,8.544,10.678,20.289,19.22,26.162c6.408,4.272,9.076,3.738,13.348-3.204c6.408-11.212,4.806-29.898,3.204-47.518
	c-0.534-9.076-1.068-14.948-1.068-18.152c0-8.542,6.406-16.018,14.95-16.018c8.542,0,16.016,6.408,16.016,14.95
	c0,2.67,0.534,8.542,1.068,17.086c0.534,8.542,1.068,15.482,1.068,20.822c0.534,37.908-13.348,61.399-36.306,65.136
	c-19.754,3.738-37.374-10.678-49.12-27.228c-5.872-8.01-10.144-16.018-12.28-23.492c-6.94-26.162-6.94-70.475-5.338-93.433
	c0-4.806,0-14.416-0.534-28.832c-0.534-13.882-0.534-25.094,0-33.102c0.534-28.298,5.872-50.721,14.95-66.205
	c10.678-18.686,29.364-24.56,48.052-19.754c15.482,4.806,29.898,18.154,34.704,34.704c6.406,18.688,6.406,30.967,4.27,45.916
	c-0.534,8.544-8.008,14.95-16.55,14.416C2346.63,1283.441,2340.224,1275.967,2340.758,1267.423z"/>
<path fill="#F99C1C" d="M2488.967,1190.542h8.542c5.34,0,9.611,2.136,12.814,6.406c1.602,0.534,11.212,5.874,14.95,9.612
	c3.204,3.202,6.94,9.61,10.678,19.22c8.008,19.754,13.348,74.747,13.882,126.535c0.534,29.365-1.068,53.925-4.272,74.213
	c-2.668,22.958-9.076,42.178-20.288,51.255c-12.814,10.144-40.043,8.008-52.323,1.068c-13.346-6.942-20.822-27.23-25.092-52.323
	c-8.01-44.848-9.612-112.653-5.34-162.307c2.67-28.297,7.474-46.984,13.348-56.061c6.406-9.61,13.882-15.482,22.424-17.084
	C2480.958,1190.542,2484.695,1190.542,2488.967,1190.542z M2507.12,1237.525l-3.204-8.542l-2.136-1.068l-9.076-5.874
	c-0.534,0-0.534,0-1.068-0.534h-6.942c-0.532,0.534-1.6,2.136-3.202,3.738c-3.204,4.806-5.874,18.686-8.01,41.644
	c-4.27,46.985-3.202,113.189,4.806,153.765c1.602,10.145,3.738,18.688,6.406,24.56c1.068,2.67,2.136,5.34,3.738,6.942
	c2.67,1.068,5.874,1.602,10.144,1.602c2.67,0,5.34,0,7.476-0.534c1.602-1.602,2.668-4.272,3.736-8.01
	c2.136-5.872,3.738-13.346,5.34-23.492c5.872-36.306,4.272-95.035,0-139.883C2512.458,1259.415,2509.789,1244.465,2507.12,1237.525z
	"/>
</svg>
