<?xml version="1.0" encoding="utf-8"?>
<!-- Generator: Adobe Illustrator 17.0.0, SVG Export Plug-In . SVG Version: 6.00 Build 0)  -->
<!DOCTYPE svg PUBLIC "-//W3C//DTD SVG 1.1//EN" "http://www.w3.org/Graphics/SVG/1.1/DTD/svg11.dtd">
<svg version="1.1" id="Layer_1" xmlns="http://www.w3.org/2000/svg" xmlns:xlink="http://www.w3.org/1999/xlink" x="0px" y="0px"
	 width="33px" height="33px" viewBox="0 0 33 33" enable-background="new 0 0 33 33" xml:space="preserve">
<g>
	<path fill-rule="evenodd" clip-rule="evenodd" fill="#97CBA5" d="M10.855,25.351C7.9,23.49,6,20.37,6,16.642
		C6,12.18,8.716,8,12.712,7c0.001,0,0.001,0,0.002,0c0.533,0,0.965-0.802,0.965-1.616c0-0.814-0.432-1.545-0.965-1.545
		c-0.163,0-0.314,0.032-0.449,0.141C7.438,5.768,3,10.772,3,16.71c0,4.985,3.128,9.322,6.988,11.647L9.22,31.004l8-2.267
		l-5.685-5.736L10.855,25.351z"/>
	<path fill-rule="evenodd" clip-rule="evenodd" fill="#97CBA5" d="M30.44,16.692c0-5.326-3.571-9.921-7.79-12.101L23.22,2l-8,2.015
		L21.46,10l0.587-2.67c3.261,1.791,5.392,5.22,5.392,9.17c0,4.465-2.72,8.269-6.72,9.787l0,0c-0.656,0-1.047,0.738-1.047,1.648
		c0,0.91,0.328,1.648,1.328,1.648v0.025c0-0.012-0.067-0.028-0.03-0.041c0.141-0.018,0.204-0.067,0.326-0.147
		C26.103,27.616,30.44,22.609,30.44,16.692z"/>
</g>
</svg>
